<?xml version="1.0" standalone="no"?>
<!DOCTYPE svg PUBLIC "-//W3C//DTD SVG 20010904//EN"
 "http://www.w3.org/TR/2001/REC-SVG-20010904/DTD/svg10.dtd">
<svg version="1.0" xmlns="http://www.w3.org/2000/svg"
 width="1280.000000pt" height="1280.000000pt" viewBox="0 0 1280.000000 1280.000000"
 preserveAspectRatio="xMidYMid meet">

<g transform="translate(0.000000,1280.000000) scale(0.100000,-0.100000)"
fill="#000000" stroke="none">
<path d="M6063 11244 c-4 -10 1 -47 10 -83 69 -272 99 -480 95 -668 -1 -78 0
-145 4 -148 24 -24 28 21 28 293 -1 264 1 299 24 433 14 81 29 154 32 163 9
22 -23 21 -35 -2 -5 -9 -14 -69 -20 -132 -24 -243 -36 -246 -80 -25 -11 55
-23 117 -26 137 -7 42 -22 58 -32 32z"/>
<path d="M6467 11142 c-57 -63 -71 -504 -21 -681 30 -109 91 -152 154 -109 67
45 96 202 86 458 -8 218 -41 302 -126 325 -25 7 -52 15 -61 19 -9 4 -22 -1
-32 -12z m128 -56 c36 -36 44 -83 51 -306 9 -309 -23 -428 -110 -406 -70 17
-103 268 -76 576 15 167 12 160 66 160 34 0 51 -6 69 -24z"/>
<path d="M8358 11143 c-40 -46 -50 -84 -46 -167 5 -75 10 -91 69 -210 62 -125
64 -132 63 -205 0 -128 -40 -200 -104 -188 -22 5 -30 3 -30 -7 0 -42 93 -18
127 32 46 69 53 202 15 297 -10 22 -36 74 -59 115 -54 98 -69 176 -48 248 17
57 27 67 67 64 30 -2 35 7 16 26 -17 17 -53 15 -70 -5z"/>
<path d="M9144 11152 c-19 -3 -23 -12 -29 -70 -3 -37 -17 -121 -30 -187 -13
-66 -37 -199 -54 -295 -17 -96 -35 -190 -40 -207 -11 -38 5 -56 25 -28 14 19
34 101 34 140 0 33 10 37 84 29 75 -8 74 -7 84 -112 6 -55 10 -67 26 -70 18
-4 19 1 12 74 -5 44 -7 93 -7 111 1 17 -5 62 -13 100 -19 85 -32 189 -46 368
-6 77 -15 142 -18 146 -4 3 -17 3 -28 1z m51 -482 l7 -113 -58 6 c-31 3 -63
12 -71 19 -12 13 1 92 78 457 3 16 37 -272 44 -369z"/>
<path d="M6873 11134 c-7 -19 4 -627 14 -721 4 -45 10 -63 20 -63 11 0 13 14
8 73 -3 39 -7 133 -8 207 -2 128 -1 135 18 135 23 0 36 -38 65 -201 26 -143
47 -214 66 -221 23 -9 25 1 9 46 -19 55 -95 367 -95 392 0 11 12 42 26 70 31
62 43 168 24 223 -7 23 -24 45 -44 57 -39 24 -94 25 -103 3z m104 -41 c35 -54
17 -214 -31 -269 -39 -47 -46 -27 -46 142 l0 154 30 0 c21 0 35 -8 47 -27z"/>
<path d="M7275 11137 c-7 -24 -30 -524 -30 -657 0 -122 2 -135 17 -135 16 0
18 17 20 180 3 174 4 182 32 240 l28 60 18 -89 c54 -256 131 -441 164 -388 3
5 -12 44 -34 88 -51 104 -100 279 -107 380 -6 80 -5 82 32 150 21 38 52 89 68
112 21 32 26 47 18 55 -18 18 -34 -6 -114 -158 -40 -76 -77 -140 -82 -142 -9
-3 -10 79 -2 244 2 45 -1 64 -10 68 -8 2 -15 -1 -18 -8z"/>
<path d="M10005 11139 c-8 -12 -6 -754 2 -774 10 -27 85 -19 130 14 72 52 101
144 108 351 5 148 -8 231 -45 285 -37 53 -83 93 -118 101 -15 4 -37 13 -49 20
-15 9 -24 10 -28 3z m119 -80 c58 -51 78 -119 84 -294 5 -171 -9 -253 -56
-319 -34 -48 -77 -75 -93 -59 -15 15 -31 440 -23 591 7 109 7 112 30 112 13 0
39 -14 58 -31z"/>
<path d="M7922 11128 c3 -7 23 -14 46 -16 l42 -3 2 -315 c1 -173 2 -331 3
-351 0 -31 -4 -38 -24 -43 -77 -18 13 -46 103 -32 65 9 74 32 12 32 -24 0 -48
5 -51 11 -12 19 -13 689 -1 690 6 1 21 0 34 -1 27 -2 29 16 3 30 -29 15 -174
13 -169 -2z"/>
<path d="M9453 11128 c-9 -14 -16 -708 -8 -745 8 -35 40 -29 37 7 0 3 -3 132
-7 288 -6 272 -3 362 15 362 4 0 20 -33 35 -72 52 -140 183 -533 190 -571 8
-42 29 -57 50 -36 14 14 21 103 45 547 9 176 3 250 -19 226 -4 -5 -13 -148
-20 -319 -6 -170 -15 -326 -19 -345 -8 -33 -9 -34 -20 -14 -6 12 -25 72 -42
134 -17 62 -55 170 -85 240 -30 70 -68 168 -84 216 -29 86 -49 111 -68 82z"/>
<path d="M8665 11038 c-3 -51 -5 -228 -3 -393 l3 -300 80 1 c62 0 80 4 80 15
0 10 -18 15 -65 19 l-65 5 0 369 c0 270 -3 370 -12 373 -7 3 -13 -26 -18 -89z"/>
<path d="M3426 11072 c-2 -4 -7 -24 -11 -45 -4 -21 -15 -42 -25 -47 -16 -9
-26 -39 -36 -115 -11 -77 -16 -93 -33 -109 -15 -14 -20 -38 -26 -117 -5 -67
-14 -113 -27 -141 -14 -29 -22 -70 -25 -142 -3 -56 -10 -106 -14 -112 -5 -6
-28 -9 -53 -7 l-43 5 -6 -39 c-4 -21 -7 -56 -7 -79 0 -28 -6 -47 -20 -59 -27
-24 -29 -148 -4 -176 15 -17 15 -21 -2 -56 -28 -58 -23 -144 10 -188 14 -18
26 -45 26 -58 0 -16 10 -31 26 -42 14 -9 23 -19 20 -22 -3 -3 -1 -14 5 -24 6
-13 7 -31 0 -53 -6 -24 -5 -40 3 -53 6 -10 13 -42 14 -71 2 -47 0 -54 -18 -59
-20 -5 -29 -33 -10 -33 6 0 10 5 10 10 0 13 46 -10 75 -37 11 -10 31 -17 44
-15 20 3 22 8 17 32 -7 35 9 48 24 20 6 -11 19 -20 30 -20 23 0 70 -20 70 -30
0 -14 -57 -31 -101 -30 -93 1 -103 0 -111 -8 -13 -13 1 -39 25 -46 12 -3 25 0
29 7 5 7 8 1 8 -15 0 -16 -4 -28 -8 -28 -5 0 -14 -18 -21 -40 -12 -40 -25 -54
-51 -55 -10 0 -15 -10 -15 -30 0 -22 4 -29 15 -26 8 2 34 6 58 8 23 3 42 10
42 14 0 5 8 9 18 9 26 0 22 -54 -4 -58 -50 -7 -65 -14 -61 -25 2 -7 -8 -26
-22 -43 -14 -17 -34 -41 -44 -53 -14 -18 -24 -21 -45 -16 -27 8 -56 13 -80 14
-7 1 -11 5 -8 10 9 14 -22 22 -105 28 -122 9 -190 -14 -126 -42 12 -6 23 -20
25 -32 2 -13 10 -23 17 -23 18 0 47 -30 42 -44 -2 -6 -28 -16 -58 -21 -56 -11
-74 -34 -33 -45 12 -3 39 -20 59 -37 21 -18 44 -33 51 -33 7 0 16 -10 20 -22
3 -12 15 -31 26 -42 28 -30 34 -65 14 -84 -13 -13 -44 -18 -149 -22 -72 -3
-141 -11 -152 -17 -17 -10 -16 -12 19 -27 21 -9 63 -16 93 -16 30 0 52 -4 49
-8 -3 -5 23 -14 57 -21 136 -27 157 -34 165 -46 4 -6 24 -20 45 -30 54 -25 79
-101 37 -112 -24 -6 -33 -32 -24 -67 4 -16 1 -32 -6 -41 -14 -17 -91 -20 -119
-6 -19 11 -77 -5 -103 -27 -17 -13 -17 -63 0 -104 8 -20 20 -28 54 -33 23 -4
52 -13 63 -21 11 -7 37 -16 58 -19 20 -4 40 -11 43 -17 3 -5 14 -6 24 -3 12 4
24 -2 36 -18 11 -13 27 -26 37 -30 14 -5 212 -20 272 -20 45 0 65 5 65 17 0
16 27 29 42 20 6 -4 27 -9 47 -11 20 -3 38 -7 40 -9 2 -1 10 3 18 11 8 8 26
18 41 21 15 3 32 7 39 9 6 2 14 30 18 62 8 71 24 125 35 118 4 -3 12 23 16 58
4 34 8 67 9 72 1 6 3 16 3 23 1 6 8 12 15 12 7 0 21 23 32 51 11 28 27 56 35
63 8 6 21 21 28 34 6 12 18 32 25 44 6 13 17 27 24 33 6 5 13 21 15 35 2 17
10 26 25 28 15 2 23 11 25 30 2 19 10 28 26 30 12 2 22 10 22 18 0 8 11 26 25
40 14 14 28 36 31 49 5 20 2 24 -15 22 -11 -1 -23 -7 -25 -14 -3 -8 -23 -13
-50 -13 -35 0 -47 -5 -59 -24 -10 -15 -29 -25 -56 -30 -23 -3 -50 -15 -61 -26
-21 -21 -95 -44 -110 -35 -17 10 -11 50 9 67 10 9 23 22 27 30 5 7 21 21 37
31 15 10 27 24 27 32 0 8 9 15 20 15 12 0 31 11 44 24 12 14 41 31 64 38 27 8
42 19 42 29 0 11 12 19 35 23 26 5 35 12 35 26 0 11 6 20 13 20 35 0 86 23 92
40 4 13 15 20 30 20 14 0 26 7 30 19 3 10 28 28 55 40 27 12 54 30 60 42 6 11
22 24 35 29 29 11 24 35 -8 44 -12 3 -84 6 -159 6 -129 0 -217 -10 -263 -30
-30 -13 -83 -20 -100 -14 -22 9 -18 34 6 34 14 0 24 10 32 29 9 26 18 31 60
36 38 6 50 12 57 30 7 18 19 24 59 30 28 4 57 15 66 25 9 10 30 21 46 24 16 3
43 9 59 12 17 3 30 11 30 19 0 11 -45 36 -75 41 -5 1 -23 8 -40 15 -26 10 -27
13 -10 17 11 2 25 8 31 13 6 5 105 7 229 3 184 -5 224 -9 254 -24 54 -28 75
-29 79 -3 2 16 -3 22 -20 25 -14 2 -24 11 -26 24 -2 16 -15 24 -55 34 -29 7
-55 17 -58 23 -4 5 -1 25 7 43 8 19 11 34 7 34 -5 1 3 10 16 20 13 11 18 20
11 20 -6 0 -18 6 -25 14 -8 8 -41 17 -74 21 -43 5 -68 14 -86 30 -14 13 -41
27 -59 31 -40 7 -83 44 -52 44 10 0 14 5 11 11 -4 6 -14 8 -24 4 -12 -5 -13
-3 -4 6 18 18 201 -14 210 -37 6 -17 52 -25 163 -28 110 -4 110 -4 110 -19 0
-18 34 -49 43 -40 11 11 54 -17 66 -43 6 -14 19 -24 32 -24 17 0 19 -3 10 -14
-7 -9 -8 -17 -2 -20 5 -3 11 -1 13 6 3 8 12 2 22 -14 14 -21 15 -31 6 -47 -6
-12 -14 -21 -18 -21 -4 0 -13 -4 -21 -9 -21 -13 9 -41 52 -48 29 -4 36 -1 52
23 10 16 24 33 32 37 7 4 13 17 13 29 0 14 5 18 16 14 9 -3 30 -7 47 -7 18 -1
24 -3 15 -6 -38 -10 -15 -23 38 -23 l57 0 -7 56 c-6 49 -4 56 10 50 17 -7 76
23 68 35 -4 7 16 13 93 24 35 6 43 11 52 37 6 17 11 43 11 59 0 15 7 35 16 43
21 22 46 249 33 306 -5 22 -8 43 -7 47 0 5 -3 19 -9 33 -9 21 -11 16 -23 -45
-16 -89 -25 -105 -56 -105 -21 0 -24 -4 -19 -20 5 -16 2 -20 -18 -20 -22 0
-25 6 -34 58 -6 31 -20 82 -31 112 -11 30 -26 106 -32 168 -11 98 -15 112 -31
112 -11 0 -20 5 -20 10 -1 6 -3 15 -4 20 -1 6 -3 26 -4 46 -1 27 -6 37 -21 41
-14 4 -22 20 -30 59 -8 35 -16 54 -26 54 -8 0 -19 11 -24 24 -11 30 -25 39
-50 31 -15 -5 -18 -12 -14 -38 11 -67 14 -75 33 -80 13 -3 20 -18 25 -53 5
-34 15 -56 33 -71 24 -21 25 -27 20 -89 -3 -40 -10 -70 -18 -75 -11 -7 -11 -9
-1 -9 7 0 10 -5 7 -11 -8 -12 -30 -7 -31 7 -3 32 -42 84 -64 84 -5 0 -10 9
-10 19 0 42 -11 52 -46 45 -34 -6 -69 10 -59 26 3 5 1 11 -5 15 -5 3 -10 19
-10 36 0 16 -4 29 -10 29 -5 0 -10 8 -10 19 0 10 -7 24 -15 31 -8 7 -15 21
-15 31 0 10 -4 21 -10 24 -5 3 -10 15 -10 26 0 11 -6 22 -14 25 -8 3 -17 26
-21 53 -7 54 -13 65 -37 74 -10 3 -18 16 -18 27 0 28 -26 76 -45 83 -8 4 -15
15 -15 26 0 11 -9 25 -20 31 -18 10 -21 7 -27 -20 -5 -26 -10 -31 -32 -28 -18
2 -27 10 -29 25 -2 14 -12 25 -27 29 -14 3 -28 17 -34 35 -5 16 -16 29 -24 29
-17 0 -27 -61 -27 -169 0 -130 -10 -181 -34 -187 -12 -3 -33 -1 -47 5 -22 8
-27 18 -32 58 -6 47 -30 107 -47 118 -4 3 -11 27 -15 54 -5 38 -12 51 -31 60
-14 6 -24 19 -24 30 0 26 -32 45 -48 29 -8 -8 -12 -50 -12 -114 0 -158 -14
-194 -57 -144 -10 11 -25 20 -35 20 -12 0 -18 8 -18 24 0 31 -20 86 -31 86
-12 0 -20 -37 -22 -101 -2 -50 -4 -54 -28 -57 -21 -2 -28 2 -33 21 -3 15 -16
27 -31 31 -16 4 -25 13 -25 26 0 12 -12 26 -30 35 -16 9 -30 22 -30 31 0 8 -9
18 -21 22 -11 4 -26 19 -32 32 -7 14 -23 26 -35 28 -14 2 -22 10 -22 22 0 11
-13 26 -30 35 -17 9 -30 24 -30 34 0 10 -8 21 -17 23 -38 10 -43 -1 -43 -88 0
-81 -1 -84 -23 -84 -16 0 -26 9 -34 30 -16 43 -40 30 -49 -28 -11 -75 3 -230
24 -267 29 -48 37 -119 16 -139 -9 -9 -24 -15 -33 -12 -9 2 -38 7 -64 11 -42
6 -50 10 -59 36 -5 16 -16 29 -24 29 -8 0 -20 23 -30 58 -9 31 -20 61 -25 66
-5 6 -9 27 -9 48 0 36 2 38 28 36 46 -3 55 9 49 65 -4 28 -13 54 -23 61 -12
10 -18 40 -24 142 -5 71 -9 130 -9 132 -2 5 -30 1 -35 -6z m1315 -1025 c8 -7
18 -20 22 -29 5 -16 24 -23 49 -19 3 0 11 -13 17 -30 6 -17 14 -28 19 -25 11
7 37 -11 37 -26 0 -7 12 -19 28 -26 15 -7 27 -21 27 -32 0 -10 9 -21 20 -25
19 -6 50 -56 50 -81 0 -8 11 -21 25 -30 14 -9 25 -22 25 -29 0 -7 9 -34 20
-59 19 -46 19 -47 0 -66 -24 -24 -53 -26 -74 -5 -8 8 -22 15 -30 15 -19 0 -21
16 -3 23 6 3 3 5 -8 4 -39 -1 -77 13 -71 28 3 8 1 17 -4 20 -6 4 -10 16 -10
28 0 15 -3 18 -8 9 -13 -20 -115 -20 -135 0 -9 9 -17 21 -17 27 0 6 -11 11
-24 11 -50 0 -86 12 -86 30 0 9 -9 25 -20 35 -16 14 -19 26 -15 47 7 32 -9 54
-48 63 -14 4 -27 15 -30 25 -3 12 -18 20 -48 25 -45 7 -69 20 -69 37 0 5 33 8
76 7 67 -3 77 -6 84 -25 7 -17 20 -23 62 -28 36 -5 60 -14 72 -27 25 -29 100
-24 104 8 3 17 -3 24 -22 29 -22 5 -25 11 -23 37 2 27 -1 31 -23 32 -15 0 -26
7 -28 18 -4 20 34 23 59 4z m707 -318 c-3 -20 -5 -19 -9 9 -3 20 -2 29 4 23 5
-5 7 -19 5 -32z m52 -66 c0 -55 -16 -73 -23 -28 -6 38 -1 65 14 65 5 0 9 -17
9 -37z m-203 -106 c6 -4 19 -4 28 -1 13 6 16 1 13 -22 -2 -25 -8 -29 -35 -32
-18 -2 -33 -7 -33 -13 0 -5 -7 -9 -15 -9 -15 0 -21 43 -10 72 6 15 32 17 52 5z
m-173 -202 c-4 -8 -11 -12 -16 -9 -6 4 -5 10 3 15 19 12 19 11 13 -6z m-811
-62 c-7 -2 -21 -2 -30 0 -10 3 -4 5 12 5 17 0 24 -2 18 -5z m-743 -102 c0 -6
-4 -13 -10 -16 -14 -9 -81 6 -74 16 7 12 84 12 84 0z m-235 -61 c3 -5 -1 -10
-10 -10 -9 0 -13 5 -10 10 3 6 8 10 10 10 2 0 7 -4 10 -10z m62 -142 c0 -17
-6 -28 -14 -28 -7 0 -13 -6 -13 -12 0 -9 -3 -8 -9 2 -6 8 -7 19 -3 25 4 5 5
17 4 25 -2 10 5 16 16 16 14 0 19 -8 19 -28z m-10 -254 c-3 -3 -12 -4 -19 -1
-8 3 -5 6 6 6 11 1 17 -2 13 -5z"/>
<path d="M5135 10610 c-8 -13 9 -20 24 -11 10 6 9 10 -3 14 -8 3 -18 2 -21 -3z"/>
<path d="M7713 10403 c-19 -7 -16 -40 4 -47 9 -4 23 0 31 8 13 12 13 18 2 30
-13 17 -17 18 -37 9z"/>
<path d="M9545 9780 c-43 -4 -81 -13 -83 -19 -4 -13 -58 -27 -139 -36 -35 -4
-63 -10 -63 -14 0 -12 -60 -32 -121 -41 -40 -6 -69 -16 -84 -30 -32 -30 -60
-23 -58 15 1 17 -1 41 -3 54 -5 22 -8 23 -57 17 -33 -5 -57 -14 -67 -26 -8
-11 -35 -23 -58 -29 -24 -5 -50 -18 -58 -30 -9 -12 -31 -22 -59 -26 -30 -5
-46 -13 -50 -25 -3 -10 -18 -23 -33 -28 -15 -5 -37 -19 -49 -31 -12 -12 -34
-26 -48 -31 -14 -5 -29 -20 -34 -33 -5 -14 -19 -27 -31 -30 -12 -3 -24 -14
-27 -25 -2 -11 -15 -24 -27 -30 -14 -6 -27 -27 -36 -53 -7 -24 -21 -51 -30
-60 -10 -8 -19 -24 -21 -34 -2 -11 -15 -22 -29 -25 l-24 -6 21 -21 c13 -13 40
-23 77 -27 37 -5 63 -14 75 -27 17 -18 33 -21 161 -22 136 -2 142 -1 160 20
13 17 33 24 76 29 41 5 65 14 82 31 26 26 86 31 142 12 25 -9 34 -9 40 1 4 7
20 13 35 13 18 0 30 7 37 23 12 26 48 33 48 10 0 -39 -14 -75 -31 -79 -13 -4
-19 -14 -19 -36 l0 -31 94 0 c101 0 126 -5 126 -25 0 -16 17 -23 81 -31 53 -7
70 -24 49 -49 -19 -23 -4 -62 26 -69 30 -8 30 -39 -1 -44 -11 -2 -34 -19 -51
-38 -17 -19 -36 -34 -42 -34 -17 0 -15 -26 3 -43 7 -8 30 -18 50 -21 l36 -7
-21 -26 c-11 -14 -20 -31 -20 -39 0 -7 -4 -14 -9 -16 -5 -1 -11 -28 -13 -58
l-3 -54 48 -9 c41 -8 48 -12 45 -31 -2 -13 -11 -22 -26 -24 -13 -2 -27 -14
-32 -26 -8 -23 -43 -36 -99 -36 -14 0 -34 -7 -44 -14 -16 -13 -16 -15 8 -30
14 -9 25 -25 25 -34 0 -10 13 -28 30 -40 40 -30 30 -48 -33 -58 -55 -9 -73
-36 -30 -42 13 -2 32 -16 43 -32 11 -16 36 -34 55 -40 19 -6 35 -18 35 -25 0
-7 11 -22 25 -33 25 -20 36 -72 15 -72 -5 0 -10 5 -10 10 0 6 -13 10 -29 10
-39 0 -75 14 -101 40 -19 19 -31 21 -93 18 -66 -3 -72 -5 -73 -26 -1 -15 4
-22 16 -22 11 0 22 -12 29 -30 6 -17 21 -34 35 -40 15 -5 26 -14 26 -20 0 -5
16 -16 35 -24 19 -8 35 -21 35 -29 0 -8 14 -20 30 -27 17 -7 43 -26 58 -41 15
-16 35 -29 45 -29 9 0 23 -11 29 -25 6 -14 19 -25 29 -25 10 0 24 -8 31 -17
20 -28 58 -43 113 -46 47 -2 50 -1 53 24 2 19 -4 33 -22 47 -14 11 -30 31 -35
44 -14 36 5 101 32 113 12 6 23 20 25 31 2 12 12 24 22 27 11 3 22 17 26 32 4
15 17 38 31 53 13 14 26 36 29 48 3 13 17 30 30 39 13 8 24 23 24 33 0 9 14
33 31 52 17 19 35 45 40 58 5 12 15 22 23 22 16 0 21 12 32 72 4 24 13 39 25
43 11 4 23 22 29 46 6 22 19 48 29 58 11 11 22 42 26 71 5 38 12 54 25 57 26
7 30 31 30 201 0 151 12 235 36 259 7 7 15 56 19 110 8 102 18 142 38 155 8 5
13 53 15 147 l4 140 -35 36 c-19 19 -42 35 -51 35 -10 0 -20 9 -23 19 -3 10
-17 22 -31 26 -40 10 -575 14 -667 5z"/>
<path d="M4910 9358 c0 -17 3 -19 12 -10 7 7 19 12 28 12 13 0 13 -2 0 -11
-12 -9 -12 -10 3 -5 10 3 23 6 28 6 4 0 6 7 3 15 -4 9 -19 15 -40 15 -28 0
-34 -4 -34 -22z"/>
<path d="M3087 9026 c-7 -19 1 -26 30 -26 25 0 29 10 11 28 -16 16 -35 15 -41
-2z"/>
<path d="M6000 9020 c0 -5 19 -10 42 -10 49 0 47 5 -4 14 -24 4 -38 3 -38 -4z"/>
<path d="M3160 8949 c0 -5 5 -7 10 -4 6 3 10 8 10 11 0 2 -4 4 -10 4 -5 0 -10
-5 -10 -11z"/>
<path d="M7148 8922 c-18 -2 -28 -9 -28 -20 0 -12 -13 -21 -45 -28 -25 -6 -45
-7 -45 -2 0 4 -4 8 -10 8 -5 0 -10 -14 -10 -31 0 -26 3 -30 19 -26 14 3 18 1
14 -9 -3 -8 0 -14 6 -14 6 0 11 -9 11 -20 0 -11 7 -20 15 -20 16 0 39 -46 30
-60 -3 -5 2 -13 10 -17 14 -8 13 -11 -4 -27 -24 -22 -41 -13 -41 20 0 21 -5
24 -34 24 -19 0 -46 4 -60 10 -24 9 -26 7 -26 -19 0 -19 7 -32 24 -41 15 -7
26 -23 28 -39 2 -18 9 -26 21 -25 13 1 17 -6 17 -30 0 -17 3 -41 6 -53 5 -18
1 -25 -20 -33 -14 -5 -26 -16 -26 -24 0 -7 -6 -19 -14 -25 -8 -7 -12 -21 -9
-31 3 -11 2 -28 -3 -37 -4 -10 -8 -22 -8 -27 -1 -9 -20 -21 -47 -29 -11 -4
-16 -19 -18 -57 -1 -42 1 -51 13 -47 11 5 16 -5 21 -41 3 -26 10 -57 16 -70 5
-13 9 -30 9 -39 0 -9 7 -21 15 -27 8 -6 19 -43 26 -86 6 -41 12 -76 14 -78 9
-10 35 15 35 35 0 16 7 27 20 30 22 6 26 19 8 25 -8 3 -12 28 -11 78 1 65 4
76 25 91 12 10 31 19 40 19 9 0 24 10 32 21 8 12 25 27 37 33 28 14 43 66 31
110 -7 23 -6 37 4 51 16 22 18 59 4 84 -11 22 7 78 28 86 7 2 10 0 7 -5 -3 -6
-1 -10 4 -10 6 0 11 8 11 18 0 11 9 30 21 43 17 20 20 32 15 79 -8 76 -8 90
-1 126 8 35 -20 93 -52 109 -12 6 -27 16 -35 22 -21 18 -60 29 -90 25z m-48
-477 c0 -8 -4 -17 -10 -20 -6 -4 -10 5 -10 20 0 15 4 24 10 20 6 -3 10 -12 10
-20z"/>
<path d="M5645 8910 c-3 -5 3 -10 14 -10 11 0 23 5 26 10 3 6 -3 10 -14 10
-11 0 -23 -4 -26 -10z"/>
<path d="M7597 8659 c-17 -19 -17 -20 -1 -17 9 1 18 11 20 21 3 22 2 21 -19
-4z"/>
<path d="M7684 8659 c-3 -6 -4 -11 -3 -12 2 -2 13 -9 23 -17 13 -10 17 -10 12
-2 -4 6 -2 12 3 12 14 0 14 -13 -1 -28 -9 -9 -9 -12 0 -12 7 0 12 -9 12 -20 0
-12 -7 -20 -16 -20 -10 0 -14 -5 -10 -16 3 -8 2 -12 -4 -9 -6 3 -10 0 -11 -7
0 -7 -2 -23 -5 -35 -3 -16 1 -23 11 -23 8 0 15 -4 15 -10 0 -11 32 -1 42 14 5
7 8 6 8 -3 0 -11 3 -11 15 -1 16 13 20 42 8 54 -4 4 -9 24 -11 44 -1 20 -4 47
-5 59 -1 11 -6 19 -10 16 -4 -3 -13 -1 -20 5 -21 16 -46 21 -53 11z"/>
<path d="M7602 8580 c0 -14 2 -19 5 -12 2 6 2 18 0 25 -3 6 -5 1 -5 -13z"/>
<path d="M7825 8268 c-11 -20 -12 -28 -4 -28 7 0 5 -8 -6 -20 -13 -14 -22 -17
-30 -10 -27 22 -43 -44 -30 -120 5 -28 12 -40 24 -40 9 0 26 -7 38 -15 20 -14
22 -14 18 5 -2 13 4 24 17 31 15 8 19 8 14 0 -4 -6 -3 -11 2 -11 4 0 18 -9 29
-19 21 -20 21 -20 26 0 5 19 27 27 27 9 0 -16 42 -11 55 7 10 14 12 11 10 -15
-1 -18 2 -32 7 -32 4 0 8 16 8 35 0 31 -3 35 -25 35 -20 0 -24 4 -23 25 1 14
8 25 15 25 7 0 12 5 11 11 -2 6 5 13 15 14 34 6 48 15 42 26 -4 5 -17 9 -28 7
-29 -3 -47 9 -41 27 7 17 -51 79 -66 70 -5 -3 -10 -1 -10 5 0 6 -16 9 -39 8
-31 -2 -43 -9 -56 -30z m171 -105 c-10 -10 -19 5 -10 18 6 11 8 11 12 0 2 -7
1 -15 -2 -18z m-178 -71 c2 -7 -3 -12 -12 -12 -9 0 -16 7 -16 16 0 17 22 14
28 -4z"/>
<path d="M5026 8261 c-10 -15 -2 -61 9 -61 7 0 9 14 7 35 -4 37 -7 41 -16 26z"/>
<path d="M4456 8098 c-9 -34 -7 -38 9 -32 16 6 21 54 6 54 -5 0 -11 -10 -15
-22z"/>
<path d="M8015 8110 c3 -5 10 -10 16 -10 5 0 9 5 9 10 0 6 -7 10 -16 10 -8 0
-12 -4 -9 -10z"/>
<path d="M8205 8064 c-6 -9 -27 -16 -55 -17 -43 -2 -70 -15 -70 -35 0 -5 -9
-12 -19 -15 -27 -7 -35 -103 -9 -103 13 0 14 3 6 13 -8 10 -7 12 6 7 14 -6 21
5 17 29 0 4 13 7 29 7 17 0 30 -5 30 -11 0 -5 -5 -7 -12 -3 -7 4 -8 3 -4 -4 4
-6 13 -9 21 -6 8 4 13 10 10 14 -7 12 21 31 37 25 24 -9 147 13 164 29 12 13
13 17 2 20 -7 2 -21 7 -30 10 -10 3 -18 14 -18 25 0 10 -7 22 -16 25 -30 11
-79 6 -89 -10z"/>
<path d="M6210 7903 c-73 -4 -108 -24 -112 -62 -3 -23 2 -26 72 -43 45 -10 80
-25 90 -37 8 -10 25 -22 38 -26 12 -3 22 -12 22 -18 0 -7 14 -18 30 -25 17 -8
43 -27 59 -43 51 -50 80 -32 57 35 -7 20 -18 42 -24 48 -7 7 -12 18 -12 26 0
38 -24 92 -41 92 -12 0 -19 9 -21 28 -3 25 -7 27 -48 28 -25 0 -74 -1 -110 -3z"/>
<path d="M8095 7853 c-40 -21 -40 -20 -25 -38 10 -12 15 -13 21 -4 5 8 13 6
30 -10 12 -11 17 -21 10 -21 -7 0 -9 -5 -5 -12 5 -8 -4 -9 -32 -5 -27 4 -34 3
-24 -3 16 -10 10 -12 -45 -14 -15 -1 -21 -9 -23 -34 -2 -20 -8 -32 -15 -29 -7
2 -10 14 -9 27 7 43 -9 130 -23 130 -7 0 -15 -6 -18 -14 -3 -7 -19 -16 -36
-19 -34 -7 -42 -35 -16 -57 8 -7 15 -22 15 -34 0 -29 11 -41 40 -44 41 -4 44
-18 11 -49 -32 -28 -32 -28 -13 -48 10 -11 23 -35 30 -53 13 -39 1 -71 -71
-178 -26 -39 -47 -78 -47 -86 0 -9 -9 -18 -20 -21 -16 -4 -20 -14 -20 -46 0
-44 5 -48 35 -27 16 10 43 11 125 5 58 -4 115 -8 128 -8 23 -1 32 -36 11 -43
-7 -2 -18 -28 -26 -58 -7 -30 -20 -61 -28 -70 -18 -19 -23 -99 -8 -108 6 -4
17 -27 26 -52 10 -32 21 -46 36 -48 12 -2 21 1 21 7 0 18 49 12 69 -8 16 -16
33 -55 47 -109 2 -7 14 -16 28 -22 13 -5 27 -18 31 -29 4 -15 18 -22 53 -27
26 -4 59 -15 74 -25 14 -11 62 -26 105 -34 132 -25 214 4 229 81 3 18 13 39
21 45 18 16 56 89 46 89 -5 1 3 7 16 14 15 8 26 25 28 41 4 24 43 75 59 75 3
0 5 -24 3 -52 -4 -97 -2 -108 26 -108 14 0 25 5 25 11 0 7 10 21 23 33 35 32
25 116 -13 116 -12 0 -20 9 -22 22 -2 18 -12 24 -47 30 -25 4 -48 13 -52 20
-12 18 1 91 17 101 19 11 18 46 -1 53 -8 4 -15 17 -15 29 0 16 -8 26 -22 30
-30 9 -88 71 -88 94 0 31 27 46 54 31 14 -7 36 -9 55 -5 23 5 43 1 74 -16 23
-12 54 -28 68 -36 15 -7 30 -24 33 -37 3 -14 16 -26 29 -30 33 -8 75 -52 82
-87 4 -19 13 -29 25 -29 13 0 19 -11 25 -46 11 -77 14 -305 5 -374 -5 -35 -8
-65 -7 -66 1 -1 12 -5 24 -8 19 -6 22 -2 28 38 4 25 11 44 15 41 4 -2 15 1 24
8 14 10 17 40 22 197 3 102 7 199 10 215 5 38 64 80 100 71 14 -4 23 -2 22 4
-2 5 8 16 22 23 20 10 26 21 28 57 5 60 -16 159 -38 188 -10 12 -22 37 -25 55
-9 43 -31 91 -50 107 -8 7 -15 20 -15 29 0 25 -23 71 -36 71 -6 0 -16 10 -23
23 -21 39 -66 60 -111 52 -32 -5 -41 -3 -46 9 -3 9 -14 16 -23 16 -9 0 -24 8
-33 19 -10 12 -30 19 -57 19 -36 1 -43 -3 -56 -29 -19 -35 -34 -36 -83 -5 -51
32 -158 49 -267 42 -49 -4 -130 -8 -180 -11 -65 -3 -93 -9 -101 -20 -19 -25
-204 -23 -204 2 0 8 4 12 9 9 11 -7 25 45 14 54 -28 22 -60 27 -88 13z m640
-493 c3 -5 -1 -10 -10 -10 -9 0 -13 5 -10 10 3 6 8 10 10 10 2 0 7 -4 10 -10z
m245 -510 c0 -5 -5 -10 -11 -10 -5 0 -7 5 -4 10 3 6 8 10 11 10 2 0 4 -4 4
-10z"/>
<path d="M5130 7813 c0 -7 -11 -15 -25 -19 -27 -7 -29 -12 -44 -98 -6 -33 -12
-60 -13 -60 -29 -10 -44 -30 -51 -67 -13 -71 -12 -70 -51 -54 -32 13 -39 13
-70 -1 -32 -16 -34 -21 -46 -92 -7 -42 -18 -81 -25 -87 -23 -19 -36 -136 -33
-317 3 -164 2 -178 -16 -191 -10 -8 -16 -19 -13 -24 4 -6 0 -24 -8 -39 -8 -16
-15 -50 -15 -76 0 -28 -5 -48 -12 -51 -10 -4 -10 -6 0 -6 6 -1 12 -10 12 -21
0 -12 7 -20 17 -20 9 0 13 -3 10 -7 -4 -3 1 -12 11 -19 14 -11 15 -16 5 -33
-17 -28 -16 -51 2 -51 16 0 19 -9 9 -34 -5 -14 -9 -13 -28 6 -11 13 -28 22
-37 20 -31 -6 -52 28 -45 74 4 30 1 45 -9 54 -13 11 -15 7 -16 -21 l-1 -34 -7
37 c-15 74 -53 85 -67 20 -4 -20 -7 -42 -6 -48 1 -7 -6 -14 -17 -17 -11 -2
-24 -20 -31 -42 -13 -41 -15 -39 37 -72 15 -10 16 -13 3 -22 -13 -9 -13 -11 0
-16 20 -7 14 -95 -7 -110 -8 -6 -14 -18 -12 -26 2 -7 -1 -29 -5 -46 -6 -24 -3
-37 8 -49 9 -8 16 -11 16 -5 0 6 11 11 23 11 21 0 25 -8 36 -56 7 -30 11 -57
9 -59 -1 -1 -16 -9 -33 -18 -27 -13 -31 -13 -45 1 -14 15 -15 15 -19 -3 -2
-11 2 -21 8 -23 6 -2 11 -10 11 -18 0 -8 7 -17 16 -21 13 -5 15 -15 9 -58 -5
-43 -3 -54 10 -59 9 -3 14 -2 11 3 -6 9 101 21 122 14 6 -3 12 -15 13 -27 0
-11 3 -15 6 -8 2 6 11 12 19 12 13 0 23 25 26 66 1 13 7 20 15 17 9 -3 13 4
14 23 0 24 2 26 8 10 7 -19 8 -18 15 5 5 13 8 27 7 32 -1 4 11 7 26 7 22 0 24
3 15 13 -7 6 -27 17 -45 23 -18 6 -34 19 -35 28 -3 15 -1 16 17 6 26 -13 47
-4 31 15 -16 20 -2 42 33 49 23 5 35 2 43 -9 19 -25 47 -17 89 25 60 61 134
120 151 120 8 0 19 11 24 25 5 14 13 25 17 24 21 -3 31 3 41 26 6 14 18 25 25
25 8 0 30 14 48 30 19 17 44 33 56 36 11 3 23 13 25 22 3 10 24 22 53 30 26 7
45 15 41 19 -9 10 40 31 88 38 25 4 47 13 50 20 2 7 30 21 61 30 31 10 62 27
68 37 7 10 17 18 24 18 7 0 13 11 13 24 0 29 13 40 65 56 22 7 48 16 57 21 9
4 65 13 124 19 59 6 111 13 116 16 4 3 8 13 8 23 0 10 11 30 25 45 24 26 26
26 155 26 l130 0 0 25 c0 16 -6 25 -16 25 -8 0 -22 16 -30 35 -8 19 -20 35
-28 35 -27 0 -36 99 -11 120 11 9 19 8 37 -4 12 -9 30 -16 40 -16 9 0 21 -7
25 -15 5 -8 30 -18 55 -21 50 -7 59 -2 92 48 17 25 17 27 -1 45 -22 22 -43 67
-43 92 0 10 -11 26 -25 35 -14 9 -25 26 -25 38 0 11 -11 31 -25 44 -14 13 -28
37 -32 55 -3 17 -12 33 -19 36 -8 3 -21 20 -30 39 -9 18 -26 43 -39 56 -12 13
-25 33 -29 46 -4 13 -15 22 -27 22 -11 0 -22 7 -25 15 -4 8 -12 15 -19 15 -7
0 -15 6 -18 14 -3 8 -28 16 -61 20 -31 4 -64 15 -73 24 -25 25 -140 23 -228
-5 -38 -12 -89 -24 -113 -27 -24 -4 -60 -17 -80 -30 -20 -12 -57 -26 -82 -29
-27 -3 -51 -14 -61 -25 -9 -12 -34 -22 -65 -26 -38 -6 -52 -13 -59 -29 -6 -12
-20 -23 -32 -25 -13 -2 -24 -13 -27 -28 -4 -14 -14 -24 -25 -24 -25 0 -40 81
-34 188 5 77 4 82 -15 82 -20 0 -32 -24 -32 -65 0 -10 -12 -28 -26 -40 -23
-18 -26 -28 -31 -117 -3 -53 -9 -102 -13 -108 -11 -18 -50 6 -50 30 0 12 -5
17 -14 14 -10 -4 -16 14 -24 73 -12 82 -10 125 7 183 14 43 14 90 1 110 -6 10
-10 11 -10 3z m-203 -813 c2 -24 0 -40 -6 -40 -6 0 -11 21 -11 47 0 55 11 51
17 -7z m198 -20 c3 -6 -1 -17 -9 -26 -9 -8 -16 -22 -16 -29 0 -7 -7 -15 -16
-17 -9 -2 -22 -19 -28 -38 -10 -30 -15 -35 -43 -35 -18 -1 -33 3 -33 8 0 4 -4
5 -10 2 -5 -3 -10 3 -10 13 0 11 -7 22 -15 26 -42 16 46 64 100 54 23 -5 26
-3 21 17 -3 12 -3 25 1 29 10 10 51 7 58 -4z m-313 -542 c-9 -9 -12 -7 -12 12
0 19 3 21 12 12 9 -9 9 -15 0 -24z m-168 -23 c3 -8 1 -15 -4 -15 -6 0 -10 7
-10 15 0 8 2 15 4 15 2 0 6 -7 10 -15z m111 -25 c-3 -5 -12 -7 -20 -3 -21 7
-19 13 6 13 11 0 18 -4 14 -10z"/>
<path d="M4680 7776 c0 -9 7 -16 16 -16 9 0 14 5 12 12 -6 18 -28 21 -28 4z"/>
<path d="M6850 7530 c0 -5 5 -10 10 -10 6 0 10 5 10 10 0 6 -4 10 -10 10 -5 0
-10 -4 -10 -10z"/>
<path d="M4121 7134 c0 -11 3 -14 6 -6 3 7 2 16 -1 19 -3 4 -6 -2 -5 -13z"/>
<path d="M4057 6943 c-13 -13 -7 -63 7 -63 16 0 24 25 18 53 -5 18 -14 22 -25
10z"/>
<path d="M4030 6848 c-46 -19 -65 -27 -79 -30 -10 -3 -15 -20 -17 -51 l-3 -47
35 0 c19 0 34 4 34 9 0 5 9 12 19 16 20 6 38 50 39 93 0 12 0 22 -1 21 -1 0
-13 -5 -27 -11z"/>
<path d="M7660 6373 c-14 -3 -32 -13 -40 -23 -8 -10 -35 -25 -60 -34 -25 -8
-41 -15 -37 -16 11 0 -54 -90 -65 -90 -4 0 -8 -11 -8 -25 0 -14 -9 -34 -20
-45 -11 -11 -20 -32 -21 -47 0 -16 -3 -36 -7 -45 -9 -22 -114 -75 -166 -84
-23 -4 -35 -9 -27 -12 19 -6 -47 -28 -131 -43 -41 -7 -68 -17 -68 -25 0 -7
-25 -20 -55 -29 -30 -10 -60 -24 -66 -31 -6 -7 -31 -16 -55 -20 -25 -3 -51
-13 -59 -20 -18 -18 -60 -34 -90 -34 -13 0 -30 -6 -37 -12 -22 -21 -75 -48
-93 -48 -9 0 -30 -11 -47 -25 -16 -14 -41 -28 -56 -32 -14 -3 -41 -17 -60 -30
-19 -12 -43 -23 -52 -23 -10 0 -21 -7 -24 -15 -3 -9 -27 -26 -53 -38 -48 -22
-58 -29 -126 -93 -20 -19 -41 -34 -47 -34 -5 0 -10 -9 -10 -20 0 -12 -10 -24
-24 -30 -14 -5 -26 -19 -28 -32 -2 -15 -11 -24 -26 -26 -13 -2 -27 -14 -32
-28 -5 -13 -16 -24 -24 -24 -8 0 -24 -13 -36 -30 -12 -16 -28 -30 -36 -30 -8
0 -14 -9 -14 -21 0 -14 -10 -24 -30 -32 -17 -6 -30 -19 -30 -28 0 -9 -10 -29
-21 -44 -13 -15 -22 -42 -23 -63 -1 -36 0 -37 39 -42 69 -9 125 0 125 19 0 14
15 19 76 28 51 7 82 17 97 31 12 12 41 24 65 28 37 6 42 4 42 -13 0 -11 -9
-28 -20 -38 -11 -10 -22 -26 -25 -36 -4 -11 -17 -22 -31 -25 -18 -5 -24 -13
-25 -35 -1 -16 -2 -39 -2 -51 -1 -18 6 -24 33 -30 57 -13 116 -1 134 27 14 22
24 25 76 25 33 0 60 -4 60 -8 0 -5 -11 -18 -25 -30 -14 -12 -25 -26 -25 -31 0
-5 -18 -20 -39 -32 -22 -12 -47 -37 -57 -55 -31 -57 -116 -58 -98 -1 3 9 1 17
-5 17 -6 0 -11 -4 -11 -10 0 -5 -23 -10 -51 -10 -34 0 -60 -6 -78 -19 -15 -11
-39 -23 -54 -26 -15 -4 -36 -19 -46 -34 -11 -15 -35 -33 -55 -41 -20 -7 -36
-18 -36 -22 0 -5 -11 -13 -25 -18 -14 -5 -25 -15 -25 -22 0 -7 -6 -2 -13 12
-13 25 -10 102 3 81 5 -9 10 -8 20 3 10 13 9 17 -4 22 -9 3 -16 15 -16 26 0
10 -4 16 -10 13 -5 -3 -10 1 -10 9 0 9 8 16 18 16 21 0 42 18 42 37 0 9 -16
13 -50 13 -47 0 -50 -2 -50 -25 0 -14 -4 -25 -10 -25 -5 0 -10 -6 -10 -14 0
-37 -70 -28 -109 14 -34 37 -37 45 -20 55 6 4 8 13 5 20 -5 14 36 65 53 65 5
0 8 17 8 37 -2 45 -27 55 -54 24 -9 -12 -22 -21 -28 -21 -6 0 -24 -14 -41 -31
-16 -17 -42 -37 -57 -45 -15 -8 -25 -19 -22 -24 3 -5 -12 -14 -34 -20 -29 -8
-40 -16 -43 -33 -2 -14 -11 -23 -27 -25 -13 -2 -26 -12 -29 -24 -3 -14 -10
-18 -27 -14 -25 6 -71 -33 -47 -41 7 -3 12 -21 12 -44 0 -40 -15 -53 -24 -21
-4 15 -4 30 3 98 1 7 11 14 22 17 16 4 20 10 14 24 -9 22 -9 29 -1 77 8 46 13
56 30 56 12 0 26 37 31 85 1 10 8 21 14 23 16 5 14 32 -3 32 -8 0 -16 -6 -18
-12 -3 -7 -16 -14 -29 -15 -13 -1 -33 -3 -44 -5 -15 -2 -21 3 -23 25 -2 15 1
27 5 27 12 0 30 55 38 118 4 31 13 56 21 59 8 3 11 9 8 14 -3 5 1 12 9 15 8 3
18 20 21 39 4 19 14 35 24 37 10 3 22 23 29 51 8 27 19 47 29 49 9 2 22 19 28
38 7 22 18 35 28 34 11 -1 18 8 20 28 4 22 1 28 -9 23 -8 -3 -23 -5 -34 -5
-11 0 -31 -11 -44 -24 -13 -14 -32 -26 -41 -28 -9 -2 -21 -11 -25 -20 -5 -10
-13 -26 -18 -35 -4 -10 -17 -20 -27 -21 -10 -2 -25 -11 -31 -20 -16 -20 -28
-8 -28 28 0 16 5 26 12 23 17 -7 29 77 12 88 -16 10 -26 2 -31 -26 -2 -13 -12
-20 -27 -21 -23 -1 -41 -19 -41 -41 0 -6 -9 -15 -21 -18 -12 -4 -29 -26 -40
-51 -16 -35 -25 -44 -44 -44 -14 0 -28 0 -32 -1 -15 -1 -13 19 3 36 15 15 22
49 27 140 2 26 -2 30 -28 33 -17 2 -33 -2 -40 -11 -5 -7 -20 -19 -32 -26 -13
-6 -25 -22 -29 -36 -3 -14 -17 -28 -35 -34 -16 -5 -29 -17 -29 -25 0 -9 -7
-16 -16 -16 -8 0 -22 -16 -30 -35 -8 -19 -21 -35 -28 -35 -8 0 -17 -13 -21
-29 -4 -20 -13 -31 -28 -33 -16 -2 -24 -14 -32 -48 -7 -28 -17 -46 -28 -48
-10 -2 -19 -17 -23 -39 -4 -22 -21 -49 -47 -74 -37 -35 -43 -38 -57 -24 -19
19 -20 151 -2 187 30 59 38 94 33 148 -2 19 -41 11 -41 -9 0 -12 -11 -23 -29
-29 -20 -7 -30 -19 -34 -41 -4 -17 -16 -40 -28 -52 -11 -11 -26 -42 -33 -68
-7 -31 -18 -49 -33 -56 -13 -5 -23 -14 -23 -20 0 -6 -9 -16 -19 -22 -23 -15
-26 -9 -36 80 -7 66 -18 75 -86 71 -43 -2 -49 0 -77 34 -16 21 -34 59 -40 87
-13 64 -10 125 17 305 10 67 8 99 -7 125 -12 22 -28 13 -34 -19 -4 -23 -18
-29 -36 -17 -8 5 -15 35 -17 80 -4 89 -24 120 -57 89 -7 -7 -21 -14 -30 -16
-15 -2 -18 5 -18 38 0 79 -37 105 -68 50 -11 -21 -23 -29 -34 -26 -11 2 -18
-2 -18 -10 0 -16 -56 -47 -70 -39 -6 3 -10 -3 -10 -14 0 -12 -4 -21 -9 -21 -5
0 -11 -9 -14 -20 -4 -15 -12 -18 -35 -15 -21 2 -36 -3 -48 -16 -9 -10 -23 -19
-31 -19 -7 0 -13 -4 -13 -10 0 -5 -8 -10 -19 -10 -13 0 -20 -9 -23 -30 -3 -16
-1 -30 4 -30 11 0 -16 -53 -35 -69 -21 -17 -31 -79 -16 -97 7 -9 16 -11 23 -5
6 5 23 9 38 8 25 -2 28 -6 28 -39 0 -20 5 -40 10 -43 6 -4 7 -11 4 -17 -4 -6
-1 -9 7 -6 19 6 27 41 28 120 1 37 6 70 11 73 6 3 10 17 10 30 0 19 4 23 17
18 13 -5 15 -2 11 15 -4 13 1 27 12 37 21 19 17 42 -8 48 -10 3 -3 5 14 6 21
1 34 -5 38 -15 9 -24 7 -31 -4 -14 -5 8 -10 10 -10 4 0 -16 35 -45 44 -37 4 4
11 1 16 -7 12 -19 13 -87 1 -95 -11 -6 -9 -54 2 -72 9 -14 27 -207 29 -300 1
-40 5 -64 14 -67 13 -5 26 42 40 142 3 29 10 55 14 57 28 17 50 -106 50 -273
0 -116 1 -122 20 -122 22 0 80 53 80 73 0 7 9 23 19 36 18 23 19 23 28 5 13
-23 23 -80 28 -146 3 -46 15 -82 15 -45 0 10 5 17 10 17 6 0 10 -4 10 -10 0
-17 46 -11 63 8 9 9 20 28 25 41 7 19 12 0 25 -90 9 -63 18 -122 20 -131 4
-24 17 -35 17 -15 0 10 7 17 15 17 9 0 18 7 21 15 3 8 14 17 24 20 13 4 19 21
24 73 11 109 10 106 45 113 54 11 62 -6 55 -122 -5 -74 -3 -99 6 -99 7 0 10
-6 7 -14 -7 -17 7 -29 50 -44 35 -12 67 3 62 29 -5 23 11 89 21 89 6 0 10 7
10 15 0 8 9 19 20 25 11 6 20 21 20 34 0 15 7 26 19 29 12 3 21 17 25 43 12
64 16 74 37 74 10 0 24 9 31 20 7 11 16 20 20 20 4 0 7 -42 7 -92 1 -51 2
-109 3 -128 3 -30 0 -35 -19 -38 -13 -2 -23 -9 -23 -17 0 -7 -7 -15 -15 -19
-8 -3 -15 -15 -15 -26 0 -11 -14 -34 -30 -50 -17 -17 -26 -30 -20 -30 6 0 8
-5 4 -11 -3 -6 -21 -9 -40 -7 -35 4 -44 -5 -44 -43 0 -10 -4 -19 -10 -19 -5 0
-10 -7 -10 -15 0 -8 -9 -19 -19 -24 -10 -6 -24 -24 -29 -41 -12 -33 -23 -37
-42 -15 -7 8 -9 15 -6 15 4 0 2 9 -4 20 -6 11 -17 20 -25 20 -7 0 -16 6 -18
13 -4 10 -6 10 -6 0 -1 -7 -10 -13 -20 -13 -33 0 -51 -11 -51 -32 0 -11 -11
-34 -24 -51 -13 -18 -27 -50 -30 -72 -5 -28 -14 -44 -28 -50 -30 -14 -38 -51
-39 -182 -1 -87 -5 -120 -19 -145 -12 -22 -15 -40 -9 -55 5 -13 3 -34 -4 -53
-10 -25 -9 -33 3 -40 9 -6 10 -10 3 -10 -8 0 -11 -23 -10 -75 1 -64 4 -75 18
-75 13 0 17 8 17 29 -1 38 10 54 33 48 13 -4 23 2 30 16 6 12 20 29 31 37 13
11 22 38 30 88 7 51 16 75 28 82 15 8 18 1 23 -71 4 -44 10 -87 15 -95 5 -9
27 -24 49 -34 l40 -18 12 34 c7 19 10 38 7 42 -7 11 23 54 33 47 5 -2 11 -42
15 -88 11 -131 15 -142 62 -142 34 -1 41 -5 56 -35 21 -41 50 -46 58 -10 4 15
14 26 27 28 17 3 23 13 28 53 6 40 12 53 31 61 13 6 24 20 24 30 0 25 28 78
41 78 5 0 15 14 21 31 6 17 21 34 34 39 14 6 24 18 24 30 0 13 7 20 19 20 25
0 29 -7 41 -72 6 -29 19 -64 30 -78 11 -14 27 -40 35 -59 13 -30 13 -37 0 -64
-8 -16 -15 -36 -15 -43 0 -7 -8 -18 -19 -23 -10 -6 -25 -31 -32 -57 -9 -29
-22 -50 -36 -56 -15 -8 -23 -23 -28 -55 -5 -33 -12 -47 -26 -50 -10 -3 -22
-19 -27 -37 -11 -38 -70 -106 -87 -100 -7 3 -15 -5 -19 -20 -5 -21 -13 -26
-36 -26 -19 0 -34 -7 -42 -20 -15 -23 -34 -26 -41 -6 -8 21 -47 16 -47 -6 0
-13 -10 -20 -30 -24 l-30 -6 0 -74 c0 -66 2 -74 19 -74 10 0 21 9 24 20 3 14
14 20 31 20 19 0 30 8 38 26 8 17 25 29 55 37 30 8 43 16 43 29 0 9 10 23 23
29 12 7 28 21 35 31 9 12 23 18 40 16 23 -2 28 -9 30 -37 5 -46 -4 -74 -32
-108 -13 -16 -26 -40 -28 -53 -1 -14 -13 -29 -25 -35 -13 -5 -23 -14 -23 -20
0 -29 -23 -85 -34 -85 -8 0 -18 -13 -24 -28 -5 -16 -22 -42 -37 -57 -14 -16
-29 -42 -32 -57 -3 -18 -13 -28 -27 -30 -26 -4 -34 -43 -10 -52 19 -7 44 10
44 30 0 8 8 14 17 14 26 0 87 24 99 38 12 17 60 11 56 -6 -3 -18 -10 -56 -11
-63 -1 -3 -12 -11 -25 -17 -14 -6 -26 -21 -28 -34 -2 -14 -12 -24 -28 -28 -15
-4 -26 -14 -28 -27 -2 -13 -13 -24 -28 -27 -15 -4 -24 -14 -24 -26 0 -18 7
-20 55 -20 55 0 55 0 55 -31 0 -23 -5 -32 -21 -36 -11 -3 -24 -16 -29 -29 -5
-12 -19 -24 -32 -26 -15 -2 -24 -11 -26 -25 -2 -15 -13 -25 -28 -29 -14 -4
-30 -17 -34 -30 -6 -14 -18 -24 -29 -24 -10 0 -24 -7 -31 -15 -7 -8 -18 -15
-24 -15 -6 0 -17 -9 -23 -19 -7 -11 -23 -21 -35 -23 -16 -2 -23 -10 -24 -26
-1 -24 0 -24 75 -20 61 3 83 9 113 30 21 15 58 28 88 32 39 5 53 12 57 26 5
19 50 40 87 40 12 0 25 9 31 23 8 18 21 23 68 28 64 7 92 23 67 39 -8 5 -11
12 -7 17 5 4 12 1 17 -7 7 -12 12 -12 22 -2 15 15 58 16 58 2 0 -7 6 -8 16 -2
12 7 22 4 37 -11 14 -14 17 -22 9 -25 -7 -2 -12 -10 -12 -18 0 -11 -4 -12 -19
-5 -21 12 -31 5 -31 -21 0 -14 -8 -18 -40 -18 -30 0 -42 -5 -46 -18 -12 -36
-28 -62 -38 -62 -14 0 -40 -57 -40 -90 -1 -16 -6 -24 -15 -22 -13 3 -31 -14
-31 -30 0 -16 30 -7 42 12 7 11 19 20 26 20 7 0 15 14 19 30 4 20 11 30 24 30
10 0 28 11 41 24 20 20 84 45 125 48 10 1 10 5 1 15 -9 11 -8 17 3 24 20 13
33 6 39 -21 4 -15 15 -27 30 -30 23 -6 25 -10 22 -61 -4 -65 -25 -95 -47 -65
-13 17 -15 17 -37 2 -12 -9 -17 -16 -10 -16 9 0 7 -7 -5 -24 -10 -13 -24 -21
-31 -19 -8 4 -12 -4 -12 -23 2 -56 -12 -84 -41 -84 -15 0 -20 -6 -17 -22 2
-19 11 -24 43 -28 39 -5 40 -6 43 -50 2 -39 0 -46 -20 -55 -16 -7 -24 -20 -26
-45 -2 -19 -8 -40 -13 -47 -12 -14 -1 -21 29 -19 13 0 28 11 35 26 7 14 22 26
34 28 12 2 25 12 28 23 5 14 16 19 45 19 44 0 70 8 70 22 0 12 26 38 38 38 5
0 13 11 16 25 4 14 14 29 24 32 22 8 32 23 32 49 0 12 11 33 24 47 13 14 26
37 30 51 3 14 13 26 21 26 8 0 20 10 26 23 7 12 24 38 40 58 15 19 31 47 34
62 4 15 13 31 20 35 18 10 35 47 35 75 0 14 7 30 15 37 8 7 15 18 15 25 0 7 6
18 14 24 7 6 16 30 19 53 3 25 14 48 26 57 12 10 22 34 27 65 5 38 14 56 37
75 56 47 74 29 76 -77 1 -62 31 -112 67 -112 34 0 39 -16 36 -120 -2 -67 0
-91 7 -80 7 10 11 11 11 3 0 -7 4 -13 9 -13 12 0 29 51 35 105 7 57 23 107 38
116 7 5 13 14 13 21 0 7 12 14 27 16 23 3 28 -2 37 -35 13 -47 14 -130 1 -250
-11 -106 2 -166 38 -171 12 -2 22 -12 24 -25 3 -24 36 -36 42 -15 2 7 9 32 15
56 7 24 18 42 26 42 9 0 15 18 20 58 12 112 27 182 40 182 7 0 15 18 19 42 9
53 23 73 42 57 8 -6 14 -22 14 -35 0 -28 28 -103 47 -125 7 -8 13 -25 13 -37
0 -33 35 -64 64 -56 35 8 46 -19 56 -139 4 -56 12 -112 17 -125 9 -23 10 -22
29 15 10 21 22 40 26 43 21 16 36 110 42 265 6 141 20 281 25 239 0 -6 18 -20
40 -32 35 -20 39 -26 40 -64 1 -24 3 -52 5 -63 3 -11 5 -26 5 -32 1 -7 9 -13
20 -13 16 0 19 11 25 78 4 42 9 92 13 111 6 33 6 33 46 27 23 -4 43 -8 45 -10
1 -2 6 -21 9 -42 4 -21 19 -56 35 -78 15 -21 28 -49 28 -62 0 -13 13 -38 28
-56 15 -18 33 -45 40 -61 7 -16 19 -27 31 -27 12 0 21 -9 25 -25 7 -29 21 -32
34 -8 12 20 -4 85 -23 95 -7 5 -16 31 -20 58 -4 33 -13 54 -24 60 -24 13 -41
120 -41 263 0 137 8 153 67 144 37 -6 75 -33 156 -109 16 -16 33 -28 38 -28 4
0 15 -12 23 -27 8 -16 31 -45 50 -66 20 -20 36 -41 36 -46 0 -5 9 -12 19 -16
11 -3 21 -16 23 -28 2 -14 11 -23 26 -25 21 -3 22 0 22 67 0 61 3 72 21 81 18
10 22 8 31 -18 6 -16 20 -33 32 -38 14 -6 26 -29 40 -76 10 -38 25 -68 31 -68
7 0 27 13 45 30 26 24 29 32 21 49 -6 10 -16 21 -22 23 -7 2 -13 34 -14 83 -2
44 -4 85 -5 90 -7 30 1 45 24 45 18 0 25 -6 28 -22 2 -16 11 -24 28 -26 14 -2
29 -8 34 -13 6 -5 20 -9 33 -9 16 0 23 -6 23 -19 0 -28 38 -34 51 -8 10 17 8
24 -7 36 -25 21 -64 76 -64 91 0 6 -10 20 -22 29 -25 21 -19 51 11 51 11 0 42
-11 69 -25 28 -14 55 -25 60 -25 6 0 14 -10 18 -22 6 -20 8 -20 19 -5 7 9 17
17 23 17 6 0 5 12 -4 30 -9 17 -22 30 -30 30 -9 0 -14 11 -14 35 0 28 -4 35
-19 35 -10 0 -25 7 -32 16 -11 14 -10 18 5 29 18 14 46 10 46 -6 0 -5 7 -9 15
-9 8 0 15 4 15 10 0 5 11 12 24 16 42 10 37 29 -10 43 -39 12 -44 16 -44 43 0
21 -6 31 -18 35 -16 4 -21 20 -28 86 -5 45 -7 105 -4 132 l5 50 71 -2 c39 -1
84 -7 99 -13 20 -7 38 -7 64 1 82 26 83 27 95 99 9 47 45 74 80 59 15 -7 30
-26 36 -45 7 -19 16 -34 21 -34 29 0 54 159 29 175 -6 4 -8 15 -5 26 5 14 0
20 -19 25 -18 4 -26 13 -26 28 0 15 -9 25 -31 33 -21 8 -30 17 -26 27 3 8 -2
16 -14 19 -10 3 -22 13 -25 24 -9 24 -55 73 -64 68 -13 -8 -16 59 -5 82 10 19
13 20 35 7 14 -7 33 -13 43 -14 9 0 17 -8 17 -18 0 -29 30 -64 51 -59 11 3 19
1 19 -4 0 -4 7 -6 15 -3 19 8 19 53 0 78 -15 20 -20 100 -9 130 3 9 15 16 25
16 10 0 19 7 19 15 0 57 104 11 125 -56 4 -11 15 -19 26 -19 12 0 24 -12 34
-36 13 -31 17 -34 30 -24 8 7 15 21 15 31 0 22 35 44 45 29 8 -13 52 -13 60 0
10 16 -14 50 -35 50 -10 0 -21 -4 -24 -9 -3 -4 -17 -6 -30 -4 -22 5 -26 12
-32 62 -3 31 -10 61 -15 67 -10 13 -6 60 5 57 3 -1 20 -4 37 -8 19 -4 34 -16
39 -31 5 -13 21 -29 34 -34 13 -5 27 -18 31 -29 3 -12 15 -21 26 -21 12 0 23
-10 29 -25 6 -17 20 -27 40 -32 17 -3 35 -14 41 -24 5 -11 16 -19 24 -19 8 0
15 -4 15 -10 0 -12 47 -13 54 -1 3 5 3 30 0 55 -5 36 -11 46 -25 46 -12 0 -21
10 -25 28 -9 43 -27 86 -40 97 -8 6 -13 45 -14 105 -3 125 -4 120 29 131 31
11 54 38 63 77 4 15 2 22 -8 22 -8 0 -14 10 -14 24 0 13 -7 29 -15 36 -8 7
-15 20 -15 29 0 9 -9 22 -20 29 -12 7 -25 23 -30 37 -5 13 -19 25 -32 27 -13
2 -27 13 -33 26 -8 18 -18 22 -55 22 -43 -1 -46 -2 -65 -43 -11 -23 -24 -60
-30 -81 -13 -49 -43 -63 -73 -35 -12 10 -24 19 -28 19 -12 0 -33 -34 -34 -53
0 -9 -3 -16 -7 -16 -5 1 -12 0 -18 -1 -36 -9 -63 -2 -88 23 -33 33 -35 33 -59
5 -16 -19 -21 -20 -28 -8 -12 18 -12 67 -1 95 5 11 4 28 0 37 -10 19 -13 100
-5 137 3 13 12 28 20 35 17 12 23 78 13 131 -3 17 -6 41 -6 54 -1 17 -5 22
-17 17 -13 -5 -14 -4 -5 7 6 8 9 29 6 48 l-5 34 13 -33 c17 -45 27 -30 27 40
0 32 3 57 8 57 19 -3 45 2 39 7 -4 4 9 24 28 46 19 21 35 42 35 47 0 18 -29
76 -30 58 0 -26 -17 -12 -23 18 -2 15 1 32 9 39 9 9 9 17 2 24 -7 7 -1 14 19
24 16 7 28 21 28 32 0 20 9 27 65 52 19 8 48 22 63 31 16 8 44 15 63 16 24 1
34 6 34 17 0 9 6 25 14 35 12 17 14 16 26 -20 7 -21 14 -67 16 -103 2 -36 6
-77 8 -91 14 -66 18 -103 22 -191 2 -52 4 -110 4 -128 -1 -23 3 -33 12 -30 20
7 37 -37 31 -80 -3 -24 -1 -42 6 -46 11 -7 91 65 91 81 0 5 11 20 25 33 14 13
25 35 25 48 0 40 22 102 37 102 7 0 13 2 13 4 0 2 6 41 14 87 18 102 21 139
13 159 -3 8 -11 47 -18 85 -13 80 -28 112 -81 174 -21 24 -38 52 -38 62 0 11
-4 19 -9 19 -15 0 -101 120 -101 141 0 10 -9 24 -20 31 -11 7 -20 18 -20 24 0
15 -89 104 -103 104 -6 0 -18 7 -28 16 -19 17 -174 44 -260 44 -49 0 -59 3
-73 25 -9 14 -23 25 -31 25 -8 0 -23 9 -33 20 -14 15 -44 24 -116 35 -56 9
-104 21 -112 30 -9 8 -34 15 -57 16 -112 2 -189 18 -212 45 -10 12 -161 25
-205 17z m1137 -665 c-3 -8 -6 -5 -6 6 -1 11 2 17 5 13 3 -3 4 -12 1 -19z
m-4955 -293 c6 -28 -6 -34 -16 -9 -8 22 -7 34 3 34 5 0 11 -11 13 -25z m4583
-145 c-3 -5 -14 -10 -23 -9 -14 0 -13 2 3 9 27 11 27 11 20 0z m-30 -50 c3 -5
1 -10 -6 -10 -6 0 -17 -6 -23 -14 -12 -15 -153 -29 -161 -16 -13 21 8 38 47
38 22 1 43 3 46 6 9 10 91 6 97 -4z m-45 -128 c0 -5 -7 -17 -15 -28 -14 -18
-14 -18 -15 4 0 13 4 20 10 17 6 -3 10 -1 10 4 0 6 2 11 5 11 3 0 5 -4 5 -8z
m10 -60 c0 -5 -7 -17 -15 -28 -14 -19 -14 -19 -15 2 0 11 3 24 7 27 9 10 23 9
23 -1z m-3356 -257 c-1 -100 -22 -269 -35 -273 -15 -6 -10 -39 7 -46 33 -13
64 -6 80 19 9 14 27 28 40 31 13 3 24 10 24 14 0 4 11 15 24 23 20 13 27 14
42 3 14 -11 16 -17 7 -27 -17 -21 -11 -63 10 -67 9 -2 18 2 18 10 5 50 19 78
40 78 10 0 19 5 19 10 0 6 10 10 23 10 17 0 28 10 40 36 10 19 15 39 12 44 -7
11 2 16 48 24 30 6 37 4 37 -9 0 -8 5 -15 11 -15 8 0 10 -22 6 -72 -4 -40 -6
-76 -7 -80 0 -4 -17 -8 -37 -10 -39 -3 -56 -24 -27 -35 10 -3 22 0 28 8 25 32
36 20 35 -40 -1 -59 -9 -85 -25 -80 -5 1 -16 -12 -24 -28 -8 -17 -23 -38 -32
-47 -10 -9 -23 -35 -29 -56 -7 -22 -18 -40 -26 -40 -7 0 -13 -11 -13 -25 0
-14 -9 -34 -20 -45 -11 -11 -17 -20 -12 -20 4 0 -4 -9 -17 -19 -14 -10 -26
-29 -28 -41 -2 -13 -10 -28 -18 -34 -8 -6 -21 -29 -28 -50 -16 -48 -37 -59
-37 -21 0 19 4 26 14 22 11 -4 16 14 23 86 4 51 6 105 4 121 -4 28 -4 28 -68
24 -54 -3 -68 -8 -89 -31 -14 -15 -29 -27 -35 -27 -5 0 -21 -12 -34 -26 -14
-15 -31 -24 -38 -21 -20 7 -29 115 -21 240 6 94 5 104 -14 127 l-21 25 -26
-27 c-16 -17 -31 -25 -41 -21 -14 5 -16 18 -11 81 3 41 9 78 14 81 12 8 33 59
33 78 0 8 13 32 29 52 16 21 33 49 36 64 4 15 14 27 21 27 8 0 19 12 25 27 14
38 30 54 48 51 13 -3 16 -18 15 -83z m1816 -280 c7 -8 10 -15 6 -15 -4 0 1
-14 9 -31 11 -19 22 -29 31 -25 9 4 14 -2 14 -17 1 -12 11 -35 24 -50 l22 -28
12 25 c8 17 16 23 30 19 14 -3 27 4 43 26 16 22 26 28 35 20 6 -5 16 -9 20 -8
29 5 54 -28 54 -71 0 -11 7 -20 15 -20 11 0 15 -11 15 -40 0 -27 -4 -40 -14
-40 -7 0 -19 -13 -26 -30 -7 -16 -19 -30 -26 -30 -8 0 -14 -4 -14 -10 0 -5 9
-10 19 -10 11 0 23 -9 26 -20 4 -12 11 -17 18 -13 7 3 4 -3 -5 -14 -10 -11
-18 -29 -18 -40 0 -22 -18 -42 -35 -40 -5 1 -14 -24 -19 -55 -5 -34 -14 -58
-21 -58 -7 0 -18 -13 -25 -30 -7 -16 -16 -30 -21 -30 -4 0 -38 -30 -74 -67
-70 -69 -85 -71 -85 -11 0 34 -5 37 -61 31 -37 -4 -49 -10 -58 -30 -7 -15 -18
-23 -29 -21 -14 3 -16 13 -14 53 2 30 9 53 18 58 16 9 18 35 5 56 -8 12 -12
12 -25 2 -8 -7 -20 -10 -26 -6 -6 4 -23 -7 -37 -24 -15 -17 -33 -31 -40 -31
-7 0 -16 -15 -21 -32 -6 -26 -14 -34 -35 -36 -19 -2 -27 -9 -27 -23 0 -12 -7
-19 -19 -19 -14 0 -20 10 -24 45 -7 51 -1 74 25 93 21 15 23 59 4 84 -12 17
-14 17 -30 0 -9 -10 -16 -23 -16 -29 0 -6 -11 -14 -24 -17 -14 -3 -27 -15 -31
-25 -4 -12 -14 -19 -26 -18 -19 1 -21 7 -17 65 3 51 8 67 26 80 31 24 27 96
-5 100 -16 2 -23 -2 -23 -12 0 -9 -9 -16 -20 -16 -43 0 -114 -58 -115 -93 0
-4 -11 -13 -25 -20 -14 -7 -27 -21 -29 -32 -6 -33 -19 -35 -121 -22 -37 5 -39
37 -3 37 74 0 92 29 97 151 1 38 8 64 19 77 9 10 17 26 17 35 0 8 9 19 21 22
11 4 25 17 30 29 13 28 49 52 49 34 1 -7 7 2 15 20 15 34 39 41 77 21 21 -11
21 -12 3 -25 -13 -10 -18 -25 -17 -48 2 -26 -3 -38 -20 -50 -12 -9 -18 -19
-14 -23 4 -4 11 -2 15 5 4 7 14 10 22 7 13 -5 89 58 89 74 0 11 50 32 61 26 5
-4 9 3 9 14 0 21 34 46 49 36 5 -3 12 -32 16 -65 7 -57 8 -60 33 -60 45 0 72
11 72 29 0 25 47 85 73 92 12 3 21 12 19 19 -1 7 4 17 13 24 9 6 17 23 19 37
5 47 23 61 46 34z m1023 -25 c-3 -11 -1 -20 5 -20 6 0 14 -9 17 -20 3 -11 11
-20 17 -20 15 0 37 31 38 53 0 32 16 17 29 -29 9 -31 21 -48 37 -54 30 -12 37
-61 33 -223 l-4 -125 -35 -31 c-19 -17 -40 -31 -47 -31 -6 0 -17 -25 -23 -55
-6 -30 -19 -62 -28 -71 -15 -15 -17 -15 -26 5 -5 11 -15 21 -22 21 -7 0 -15 9
-19 19 -3 11 -17 27 -32 36 -14 9 -23 12 -19 7 3 -6 2 -13 -4 -17 -5 -3 -8
-19 -6 -35 2 -21 -1 -30 -11 -30 -8 0 -11 -4 -8 -10 3 -5 1 -10 -5 -10 -6 0
-9 -4 -5 -9 3 -6 -6 -20 -19 -33 -15 -14 -26 -37 -28 -58 -3 -30 0 -35 20 -38
45 -7 12 -39 -38 -38 -18 1 -25 7 -25 21 0 16 -7 20 -35 20 -28 0 -35 -4 -40
-25 -5 -21 -12 -25 -48 -26 -23 -1 -42 1 -43 5 0 3 -3 17 -6 31 -3 14 -6 34
-6 45 1 11 2 56 3 100 1 44 -2 88 -5 98 -7 17 -50 24 -59 8 -3 -4 -29 -11 -57
-14 -29 -4 -55 -11 -59 -17 -3 -5 -27 -13 -53 -16 -43 -6 -47 -5 -47 15 0 13
6 21 18 21 35 0 70 158 41 187 -9 9 -5 14 15 19 14 3 26 11 26 16 0 6 7 5 16
-3 26 -21 35 2 38 101 1 14 15 38 32 55 22 22 33 44 38 78 4 26 10 47 14 47
15 0 40 -56 47 -102 7 -44 10 -48 40 -54 45 -8 55 0 55 43 0 45 20 105 34 100
6 -2 23 9 38 25 l27 28 11 -38 c5 -20 10 -52 10 -69 0 -31 2 -33 38 -33 33 0
39 4 54 38 9 20 19 49 23 65 5 24 37 67 49 67 2 0 2 -9 -1 -20z m-563 -127 c0
-28 -25 -31 -39 -4 -12 22 -6 30 20 28 13 -1 19 -9 19 -24z m-1443 -99 c-3 -3
-12 -4 -19 -1 -8 3 -5 6 6 6 11 1 17 -2 13 -5z m-33 -60 c3 -8 -1 -22 -9 -30
-8 -9 -15 -19 -15 -24 0 -14 -62 -44 -84 -41 -10 1 -16 -2 -12 -7 8 -14 -29
-43 -46 -37 -19 7 -18 43 1 54 8 5 20 7 28 4 7 -3 13 0 13 7 0 6 -4 8 -10 5
-5 -3 -10 0 -10 8 0 8 9 17 20 20 11 3 20 14 20 24 0 27 4 30 54 31 32 2 45
-2 50 -14z m1346 -346 c0 -13 -23 -5 -28 10 -2 7 2 10 12 6 9 -3 16 -11 16
-16z m-1980 -1259 c0 -10 -7 -19 -15 -19 -15 0 -21 31 -9 43 11 10 24 -3 24
-24z m-365 -49 c3 -5 2 -10 -4 -10 -5 0 -13 5 -16 10 -3 6 -2 10 4 10 5 0 13
-4 16 -10z m282 -62 c-3 -8 -6 -5 -6 6 -1 11 2 17 5 13 3 -3 4 -12 1 -19z
m115 -484 c-2 -13 -8 -24 -13 -24 -10 0 -11 16 -2 48 8 31 22 9 15 -24z"/>
<path d="M6844 3917 c-8 -22 -1 -30 21 -25 14 3 14 5 1 23 -14 19 -15 19 -22
2z"/>
<path d="M7874 4380 c0 -11 5 -19 11 -17 5 2 10 10 10 17 0 7 -5 15 -10 17 -6
2 -11 -6 -11 -17z"/>
<path d="M4465 6170 c-3 -5 -1 -10 4 -10 6 0 11 5 11 10 0 6 -2 10 -4 10 -3 0
-8 -4 -11 -10z"/>
<path d="M4536 6105 c-3 -9 0 -15 9 -15 8 0 15 7 15 15 0 8 -4 15 -9 15 -5 0
-11 -7 -15 -15z"/>
<path d="M4478 6068 c9 -9 15 -9 24 0 9 9 7 12 -12 12 -19 0 -21 -3 -12 -12z"/>
<path d="M3667 5983 c-3 -5 -1 -17 4 -28 7 -17 8 -17 8 8 1 27 -4 34 -12 20z"/>
<path d="M4520 5771 c0 -6 4 -13 10 -16 6 -3 7 1 4 9 -7 18 -14 21 -14 7z"/>
<path d="M8490 5086 c0 -9 5 -16 10 -16 6 0 10 4 10 9 0 6 -4 13 -10 16 -5 3
-10 -1 -10 -9z"/>
<path d="M6155 4760 c3 -5 8 -10 11 -10 2 0 4 5 4 10 0 6 -5 10 -11 10 -5 0
-7 -4 -4 -10z"/>
<path d="M3937 4682 c-9 -21 -17 -44 -17 -50 0 -7 -9 -21 -20 -32 -11 -11 -23
-38 -26 -61 -4 -22 -15 -45 -24 -51 -16 -10 -16 -13 -2 -29 11 -12 24 -16 39
-13 18 5 25 1 31 -17 10 -26 -5 -100 -23 -111 -6 -4 -17 -26 -24 -50 -8 -24
-24 -64 -37 -89 -13 -26 -24 -54 -24 -62 0 -9 -9 -19 -21 -22 -11 -4 -18 -9
-15 -12 3 -4 1 -12 -5 -19 -6 -8 -14 -43 -16 -79 -5 -51 -10 -66 -24 -70 -13
-4 -22 -23 -30 -65 -7 -38 -20 -66 -35 -81 -14 -13 -24 -34 -24 -50 0 -18 -6
-30 -18 -34 -11 -3 -25 -23 -32 -46 -9 -26 -22 -44 -37 -50 -13 -5 -24 -15
-24 -24 -1 -8 -2 -21 -3 -27 -1 -7 10 -13 24 -13 23 0 25 -4 25 -45 0 -37 -4
-47 -22 -55 -16 -7 -23 -18 -23 -38 0 -20 -7 -30 -24 -37 -13 -4 -26 -20 -30
-34 -4 -17 -13 -26 -25 -26 -12 0 -23 -11 -29 -27 -5 -16 -23 -40 -38 -55 -16
-15 -55 -52 -88 -83 -32 -30 -69 -58 -82 -61 -13 -4 -24 -15 -26 -27 -2 -15
-11 -23 -30 -25 -18 -2 -28 -11 -32 -28 -4 -14 -14 -24 -24 -24 -21 0 -42 -18
-42 -37 0 -8 20 -13 58 -15 50 -3 57 -6 60 -25 3 -17 -3 -26 -22 -33 -16 -6
-26 -17 -26 -30 0 -12 -10 -25 -25 -32 -14 -6 -25 -17 -25 -23 0 -7 -3 -27 -6
-44 -6 -28 -4 -31 19 -31 14 0 27 6 30 14 3 8 16 16 29 18 13 2 27 13 33 26 5
12 17 22 26 22 8 0 38 16 65 35 27 19 56 35 64 35 35 0 90 22 90 35 0 8 9 15
19 15 11 0 23 5 26 10 3 6 15 10 26 10 14 0 19 7 19 25 0 17 -4 23 -14 19 -18
-7 -32 34 -17 49 9 9 14 8 20 -2 6 -9 11 -2 15 23 5 26 12 36 26 36 10 0 37
16 60 35 23 19 48 35 56 35 8 0 19 11 24 25 6 16 17 25 30 25 14 0 24 10 31
29 6 16 19 31 30 34 11 3 24 19 30 36 6 17 17 31 25 31 20 0 17 17 -7 41 -17
17 -20 28 -14 69 4 27 13 51 21 54 14 5 44 68 44 93 0 8 8 27 18 41 10 15 26
62 36 104 9 42 23 79 30 81 7 3 18 23 24 45 7 23 20 43 31 47 17 5 44 47 46
70 0 6 4 16 9 24 5 8 4 16 -4 21 -8 5 -4 15 14 33 26 26 26 26 9 61 -10 20
-23 36 -30 36 -22 0 -31 74 -18 148 6 32 12 42 26 42 11 0 19 1 19 3 0 1 3 54
6 117 l5 115 -45 34 c-31 22 -46 41 -46 56 0 14 -7 25 -20 28 -11 3 -24 15
-28 26 -7 20 -9 18 -25 -17z"/>
<path d="M9155 4438 c-4 -24 -7 -57 -6 -75 2 -23 -3 -35 -18 -43 -15 -8 -21
-21 -21 -47 0 -30 2 -34 15 -23 11 9 15 9 15 1 0 -6 -7 -14 -16 -18 -12 -4
-11 -8 8 -17 13 -6 24 -22 26 -34 2 -13 10 -22 21 -22 22 0 41 -19 41 -42 0
-12 8 -18 24 -18 28 0 36 28 36 125 0 111 -9 150 -46 189 -19 20 -34 43 -34
51 0 8 -8 15 -19 15 -14 0 -20 -10 -26 -42z"/>
<path d="M9904 4304 c3 -9 6 -20 6 -25 0 -4 7 -6 15 -3 24 9 19 44 -6 44 -15
0 -19 -4 -15 -16z"/>
<path d="M9517 4024 c-9 -16 -7 -138 3 -154 14 -22 22 49 13 110 -5 30 -12 50
-16 44z"/>
<path d="M8884 3863 c14 -156 14 -154 -6 -164 -11 -6 -44 -10 -74 -10 -60 0
-58 4 -47 -101 4 -38 9 -48 23 -48 11 0 20 10 24 25 5 18 13 25 30 25 20 0 25
6 30 44 6 39 10 44 31 41 13 -1 23 3 22 9 -3 15 74 20 83 6 4 -7 5 -32 2 -56
-4 -39 -2 -44 15 -44 18 0 21 8 25 72 7 93 0 148 -19 148 -8 0 -21 17 -29 38
-10 25 -28 45 -54 60 -59 34 -62 31 -56 -45z"/>
<path d="M4165 3644 c-9 -10 -14 -26 -12 -36 4 -13 -2 -22 -18 -28 -19 -7 -25
-19 -30 -57 -4 -26 -9 -55 -11 -64 -3 -9 2 -19 10 -22 23 -9 56 4 56 22 0 10
11 28 24 40 23 22 25 22 33 4 17 -36 -1 -143 -23 -143 -9 0 -12 -5 -9 -10 3
-6 -1 -13 -9 -16 -9 -3 -16 -12 -16 -20 0 -7 -10 -20 -22 -28 -20 -14 -20 -17
-6 -33 19 -21 28 -68 13 -68 -30 -2 -55 -18 -55 -36 0 -11 -7 -22 -16 -26 -8
-3 -19 -16 -24 -29 -6 -15 -19 -24 -37 -26 -23 -2 -28 -8 -28 -32 l0 -29 97 2
c87 2 98 0 116 -19 27 -29 84 -37 106 -15 21 21 20 31 -4 48 l-21 14 21 6 c11
3 20 9 19 14 -3 18 2 33 11 33 6 0 10 -8 11 -17 0 -15 2 -15 8 2 37 92 33 105
-29 114 -3 1 -6 36 -7 79 0 44 -6 89 -13 102 -10 19 -10 24 4 32 12 7 16 24
16 70 l0 61 -52 -7 c-43 -6 -50 -5 -40 7 9 10 8 18 -3 33 -8 10 -15 29 -15 41
0 28 -10 53 -20 53 -5 0 -16 -7 -25 -16z m95 -250 c0 -8 -4 -12 -10 -9 -5 3
-10 10 -10 16 0 5 5 9 10 9 6 0 10 -7 10 -16z m32 -186 c-7 -7 -12 -8 -12 -2
0 6 3 14 7 17 3 4 9 5 12 2 2 -3 -1 -11 -7 -17z m-104 -51 c2 -10 -3 -17 -12
-17 -10 0 -16 9 -16 21 0 24 23 21 28 -4z m65 -119 c16 -10 3 -20 -15 -13 -8
3 -14 16 -13 28 4 38 8 43 12 17 3 -14 10 -28 16 -32z m-168 12 c3 -5 -1 -10
-10 -10 -9 0 -13 5 -10 10 3 6 8 10 10 10 2 0 7 -4 10 -10z"/>
<path d="M3487 3523 c-15 -14 -7 -43 12 -43 20 0 35 25 25 41 -6 11 -28 12
-37 2z"/>
<path d="M8410 3266 c0 -9 -22 -17 -71 -24 -39 -6 -74 -13 -77 -16 -13 -14 21
-29 81 -35 70 -7 86 0 89 43 1 14 6 24 11 23 5 -1 12 4 14 11 3 7 -5 12 -21
12 -15 0 -26 -6 -26 -14z"/>
<path d="M8832 2984 c4 -21 22 -23 26 -1 2 10 -3 17 -13 17 -10 0 -15 -6 -13
-16z"/>
<path d="M4068 2963 c-18 -5 -38 -51 -34 -80 2 -11 13 -19 29 -21 18 -2 32
-13 42 -33 9 -16 11 -29 6 -29 -20 0 -21 -34 -2 -54 16 -16 23 -18 33 -8 7 7
19 12 28 12 16 0 50 63 50 93 0 10 7 17 15 17 8 0 15 5 15 10 0 6 -9 10 -20
10 -11 0 -20 5 -20 10 0 6 -7 10 -15 10 -8 0 -15 6 -15 13 0 8 -4 7 -10 -3 -7
-11 -10 -5 -10 23 0 36 -1 37 -37 36 -21 -1 -46 -3 -55 -6z"/>
<path d="M8652 2938 c3 -7 13 -15 22 -16 12 -3 17 1 14 10 -3 7 -13 15 -22 16
-12 3 -17 -1 -14 -10z"/>
<path d="M8711 2934 c0 -11 3 -14 6 -6 3 7 2 16 -1 19 -3 4 -6 -2 -5 -13z"/>
<path d="M2970 2885 c-10 -12 -10 -19 -2 -27 16 -16 64 2 68 25 3 22 -48 24
-66 2z"/>
<path d="M4057 2683 c-13 -12 -7 -41 8 -47 18 -6 30 16 21 39 -6 16 -18 19
-29 8z"/>
<path d="M4015 2610 c-11 -4 -29 -10 -40 -14 -37 -13 -52 -76 -18 -76 11 0 14
7 11 25 -5 26 6 43 17 25 3 -5 26 -7 53 -3 55 7 48 3 56 31 7 20 4 22 -26 21
-18 -1 -42 -4 -53 -9z"/>
<path d="M3930 2345 c-14 -8 -32 -15 -40 -15 -8 -1 -33 -10 -55 -20 -40 -19
-40 -19 -10 -19 17 0 56 -3 88 -7 54 -6 59 -5 64 15 3 11 10 21 15 21 5 0 6 5
3 10 -3 6 3 10 14 10 11 0 23 5 26 10 10 15 -76 11 -105 -5z"/>
<path d="M3680 2276 c-19 -7 -37 -21 -38 -30 -2 -9 -15 -21 -28 -26 -31 -12
-35 -60 -5 -60 11 0 23 5 26 10 3 6 15 10 26 10 12 0 23 10 29 25 6 16 17 25
32 25 22 1 66 26 57 34 -10 8 -48 26 -56 25 -4 0 -24 -6 -43 -13z"/>
<path d="M4000 2171 c0 -22 -113 -41 -125 -21 -12 20 -45 10 -60 -19 -8 -16
-24 -32 -35 -36 -13 -4 -20 -15 -20 -31 0 -24 2 -25 52 -22 l53 3 13 -60 c7
-33 10 -77 8 -97 -2 -21 0 -41 5 -44 10 -6 14 29 10 92 -2 31 2 43 14 48 9 3
13 10 10 16 -3 5 0 10 7 10 17 1 43 37 52 73 4 18 13 27 26 27 16 0 20 7 20
35 0 24 -5 35 -15 35 -8 0 -15 -4 -15 -9z m-80 -72 c0 -11 -25 -39 -34 -39
-12 0 -6 48 7 53 15 5 27 -1 27 -14z"/>
<path d="M3540 2135 c0 -18 5 -25 20 -25 15 0 20 7 20 25 0 18 -5 25 -20 25
-15 0 -20 -7 -20 -25z"/>
<path d="M4380 2136 c0 -23 28 -26 52 -6 l23 19 -37 1 c-26 0 -38 -4 -38 -14z"/>
<path d="M3707 2033 c-3 -5 -8 -29 -12 -55 -6 -40 -4 -48 13 -57 15 -8 23 -6
37 9 10 11 26 20 37 20 24 0 23 22 -2 45 -11 10 -20 24 -20 32 0 14 -45 19
-53 6z"/>
<path d="M3601 1833 c1 -18 3 -21 6 -10 2 9 9 15 14 12 5 -4 9 1 9 9 0 9 -7
16 -15 16 -10 0 -15 -9 -14 -27z"/>
<path d="M3836 1801 c-4 -7 -5 -15 -2 -18 9 -9 19 4 14 18 -4 11 -6 11 -12 0z"/>
</g>
</svg>
