<?xml version="1.0" standalone="no"?>
<!DOCTYPE svg PUBLIC "-//W3C//DTD SVG 20010904//EN"
 "http://www.w3.org/TR/2001/REC-SVG-20010904/DTD/svg10.dtd">
<svg version="1.0" xmlns="http://www.w3.org/2000/svg"
 width="1588.000000pt" height="1588.000000pt" viewBox="0 0 1588.000000 1588.000000"
 preserveAspectRatio="xMidYMid meet">

<g transform="translate(0.000000,1588.000000) scale(0.100000,-0.100000)"
fill="#000000" stroke="none">
<path d="M11277 15206 c-120 -44 -235 -156 -398 -386 -85 -121 -216 -261 -340
-365 -79 -66 -287 -217 -584 -425 -149 -104 -315 -239 -360 -294 -79 -94 -165
-230 -165 -261 0 -30 16 -14 49 52 44 84 180 228 319 337 124 97 141 108 497
333 154 97 315 203 359 236 99 75 297 274 392 392 79 100 114 131 196 171 70
34 94 29 162 -36 65 -61 186 -261 268 -443 33 -73 88 -195 123 -272 35 -77 84
-184 110 -239 56 -119 129 -306 156 -401 55 -191 72 -255 81 -315 5 -36 14
-90 19 -120 34 -195 37 -416 9 -643 -10 -86 -21 -161 -24 -166 -3 -4 -10 -32
-15 -62 -18 -96 -57 -221 -116 -364 -31 -77 -61 -144 -65 -148 -4 -5 -39 20
-76 55 -303 284 -563 426 -834 455 -47 5 -101 6 -120 1 -19 -4 -59 -8 -89 -8
-58 0 -72 -2 -336 -54 -93 -19 -233 -44 -311 -56 -78 -12 -147 -26 -155 -31
-23 -16 19 -42 56 -34 17 3 82 10 145 14 114 9 246 27 261 37 5 3 44 10 86 15
43 6 103 14 133 19 121 20 192 22 286 11 254 -32 537 -182 781 -415 84 -80
103 -103 103 -127 0 -29 -57 -128 -74 -129 -4 0 -25 13 -45 29 -210 166 -494
297 -760 351 -90 18 -360 43 -370 34 -2 -2 -1 -10 2 -19 5 -12 27 -15 124 -15
308 0 659 -151 919 -393 41 -38 74 -73 74 -79 0 -5 -31 -50 -70 -99 -75 -95
-85 -119 -46 -119 18 0 38 15 68 52 60 73 105 118 114 118 5 -1 30 -29 56 -63
26 -34 74 -95 107 -136 79 -98 169 -252 233 -395 43 -98 54 -115 65 -103 11
11 11 25 -2 88 -9 41 -27 108 -41 148 -23 67 -25 79 -13 113 15 48 6 176 -21
281 -23 93 -97 239 -151 300 -21 25 -39 52 -39 61 0 9 15 47 33 84 98 195 193
500 217 696 21 166 32 354 25 456 -4 58 -8 141 -9 185 -4 109 -22 264 -42 355
-88 402 -206 764 -344 1058 -137 291 -275 529 -345 598 -80 78 -188 110 -268
80z m689 -3630 c29 -20 119 -207 150 -311 40 -138 40 -147 -3 -78 -58 93 -212
275 -242 284 -9 3 -2 20 25 61 22 32 41 57 44 58 3 0 15 -6 26 -14z"/>
<path d="M11308 14684 c-18 -9 -31 -28 -40 -57 -7 -23 -20 -48 -30 -55 -24
-18 -23 -49 7 -134 34 -99 41 -186 21 -273 -34 -146 -175 -385 -297 -502 -79
-76 -163 -145 -204 -166 -31 -16 -36 -22 -22 -25 11 -2 29 5 40 15 12 10 48
32 80 48 177 92 376 335 453 554 14 42 29 83 31 91 12 33 22 -58 13 -115 -5
-33 -14 -94 -20 -135 -22 -152 -103 -351 -202 -498 -27 -41 -48 -76 -45 -78 6
-7 107 111 172 201 60 84 123 202 145 270 42 134 37 -24 -8 -260 -6 -27 -28
-106 -50 -175 -103 -320 -107 -343 -54 -316 38 20 139 225 177 359 38 134 43
132 69 -33 45 -299 45 -493 -2 -798 -7 -44 -6 -55 6 -60 8 -3 22 -1 30 4 26
17 70 143 92 265 19 100 21 142 17 305 -4 180 -16 310 -36 419 -25 128 -44
225 -57 285 -22 102 -34 198 -34 285 0 143 -84 419 -166 543 -37 56 -44 59
-86 36z"/>
<path d="M9760 14077 c-97 -48 -213 -154 -294 -269 -46 -66 -121 -208 -169
-323 -28 -66 -66 -264 -70 -356 -3 -73 -19 -72 -32 2 -18 104 -10 256 18 344
96 301 178 509 238 603 19 30 20 32 3 32 -10 0 -41 -24 -68 -52 -43 -45 -70
-93 -173 -308 -150 -315 -174 -386 -190 -550 -6 -63 28 -244 83 -450 l47 -175
1 -178 c1 -162 3 -177 19 -177 9 0 18 -4 18 -10 1 -5 3 -14 4 -20 1 -5 3 -18
4 -27 2 -25 23 16 65 126 41 107 183 368 303 559 113 180 313 425 407 500 39
31 98 77 130 104 68 54 168 95 265 108 148 21 151 22 151 41 0 11 -10 29 -21
40 -19 19 -30 21 -113 17 -84 -3 -98 -7 -161 -42 -39 -21 -99 -59 -135 -84
-99 -70 -355 -332 -434 -445 -114 -163 -106 -128 20 83 83 140 191 285 310
415 108 118 106 140 -3 38 -220 -208 -427 -499 -579 -818 -35 -74 -64 -139
-64 -145 0 -5 -4 -10 -8 -10 -5 0 -8 105 -7 233 2 208 5 246 29 362 65 313
140 449 382 695 97 98 124 131 124 153 0 15 -3 27 -7 27 -5 0 -46 -19 -93 -43z
m-200 -1127 c0 -5 -5 -10 -11 -10 -5 0 -7 5 -4 10 3 6 8 10 11 10 2 0 4 -4 4
-10z"/>
<path d="M6700 14037 c-3 -3 -41 -8 -85 -10 -163 -10 -338 -64 -507 -158 -121
-67 -137 -78 -240 -173 -154 -141 -285 -366 -329 -566 -10 -47 -24 -148 -30
-225 -10 -119 -9 -158 4 -261 17 -132 60 -281 113 -389 37 -78 145 -213 220
-275 59 -50 186 -112 274 -135 115 -30 360 -8 340 30 -3 6 -9 8 -15 5 -5 -3
-64 -4 -130 -4 -102 2 -132 6 -200 29 -124 42 -203 88 -280 163 -171 166 -254
374 -256 642 -1 157 20 283 76 455 45 139 97 227 193 327 211 221 535 337 912
326 69 -2 150 -9 180 -15 30 -7 98 -19 150 -28 96 -17 254 -68 401 -130 220
-93 448 -270 556 -433 114 -171 132 -404 47 -610 -39 -95 -39 -93 -18 -85 18
7 94 155 117 228 19 60 37 177 37 238 0 75 -36 232 -73 318 -57 131 -97 189
-196 288 -163 161 -361 275 -623 355 -81 25 -180 50 -220 56 -169 25 -208 30
-308 36 -58 3 -107 4 -110 1z"/>
<path d="M6535 13517 c-81 -28 -148 -70 -224 -142 -65 -62 -87 -92 -133 -182
-98 -189 -132 -335 -131 -563 0 -100 6 -158 21 -226 23 -100 66 -224 90 -264
27 -44 86 -101 124 -121 48 -24 160 -26 218 -3 23 9 43 14 46 11 3 -2 -15 -47
-40 -99 -72 -152 -175 -237 -332 -274 -142 -33 -354 3 -499 86 -106 61 -244
201 -294 297 -34 67 -91 218 -101 269 -5 27 -14 67 -20 89 -12 51 -12 265 1
330 5 28 14 70 18 95 5 25 18 73 29 107 11 35 16 65 12 68 -17 11 -72 -87
-107 -192 -36 -107 -37 -110 -41 -298 -3 -185 -3 -193 27 -307 40 -155 68
-220 138 -325 118 -178 266 -289 448 -339 138 -37 371 -25 507 26 69 26 161
96 220 166 113 137 246 479 198 509 -15 9 -73 -27 -85 -53 -10 -22 -39 -28
-130 -25 -161 4 -264 156 -306 452 -11 82 -11 110 5 239 34 271 120 429 272
499 50 23 64 24 167 21 l112 -3 109 -53 c94 -47 120 -65 196 -140 47 -48 124
-134 170 -192 97 -120 191 -220 208 -220 22 0 12 83 -16 151 -109 255 -364
503 -604 586 -88 31 -213 40 -273 20z"/>
<path d="M9416 13435 c-3 -8 -1 -15 4 -15 6 0 10 7 10 15 0 8 -2 15 -4 15 -2
0 -6 -7 -10 -15z"/>
<path d="M9400 13390 c0 -5 5 -10 10 -10 6 0 10 5 10 10 0 6 -4 10 -10 10 -5
0 -10 -4 -10 -10z"/>
<path d="M10326 13145 c-110 -29 -269 -105 -401 -192 -120 -79 -434 -384 -402
-391 11 -2 49 20 95 56 574 441 1002 504 1413 207 52 -38 127 -93 168 -122 89
-64 120 -68 146 -19 l18 34 -44 77 c-52 92 -156 194 -257 255 -39 23 -120 58
-179 78 -106 35 -111 36 -288 38 -161 2 -190 0 -269 -21z"/>
<path d="M8463 12847 c-91 -49 -220 -148 -233 -180 -5 -12 -18 -49 -30 -82
-42 -114 -63 -154 -98 -187 -32 -31 -35 -32 -46 -14 -6 10 -20 30 -32 44 -20
25 -22 25 -79 14 -62 -13 -324 -143 -426 -213 -95 -64 -110 -106 -64 -178 34
-54 19 -65 -88 -64 -82 1 -100 5 -261 67 -60 23 -84 26 -187 26 -118 0 -119 0
-125 -25 -6 -23 1 -129 25 -375 17 -170 87 -345 188 -465 82 -97 94 -100 201
-45 108 54 196 141 267 260 53 92 123 173 167 196 27 14 28 13 42 -19 7 -19
17 -43 20 -54 11 -35 43 -34 123 4 102 48 222 139 491 369 l53 46 157 9 c205
11 371 46 426 90 25 20 26 24 21 87 -16 183 -42 276 -117 424 -61 121 -158
229 -246 276 -33 18 -61 32 -63 32 -2 0 -41 -20 -86 -43z m-518 -619 c11 -24
67 -92 125 -151 l105 -109 -30 -24 c-17 -14 -44 -38 -61 -53 -83 -78 -223
-171 -258 -171 -8 0 -33 35 -56 78 -23 42 -76 128 -117 190 -42 62 -74 114
-72 116 10 9 142 87 181 107 46 23 136 58 153 59 6 0 19 -19 30 -42z"/>
<path d="M10825 12770 c-11 -5 -42 -9 -70 -9 -91 -2 -372 -69 -590 -141 -192
-64 -461 -214 -600 -335 -47 -41 0 -23 82 31 92 61 301 162 393 190 41 12 128
40 192 62 64 23 145 46 180 52 35 7 72 16 83 20 11 5 31 10 45 10 14 1 98 3
188 6 l162 5 136 -45 c74 -25 140 -46 146 -46 6 0 19 7 29 16 17 15 17 18 2
43 -50 80 -114 118 -223 133 -124 17 -135 17 -155 8z"/>
<path d="M8920 12032 c-14 -2 -31 -9 -39 -15 -16 -14 -6 -15 224 -41 77 -9
165 -21 195 -26 118 -23 248 -52 320 -71 41 -12 93 -26 115 -31 88 -23 315
-113 393 -155 201 -108 353 -236 418 -350 15 -26 40 -69 56 -94 38 -61 37 -73
-4 -64 -101 24 -567 1 -738 -36 -232 -51 -455 -137 -586 -227 -60 -41 -165
-142 -207 -199 -44 -60 -106 -287 -92 -339 4 -16 11 -52 15 -81 11 -66 48
-149 61 -136 6 6 6 20 -1 38 -24 63 -30 168 -16 260 38 251 195 413 491 504
201 61 335 76 675 75 413 -1 572 -20 899 -104 108 -28 319 -104 401 -145 134
-68 294 -208 346 -304 43 -81 58 -80 51 5 -7 92 -36 165 -98 247 -142 189
-389 315 -754 387 -82 16 -180 32 -216 35 l-67 6 -6 48 c-3 26 -21 78 -40 116
-80 168 -205 287 -446 428 -97 56 -382 177 -419 177 -11 0 -30 4 -43 9 -30 11
-142 34 -303 62 -67 11 -533 28 -585 21z"/>
<path d="M8461 11887 c3 -4 49 -22 102 -42 53 -19 121 -47 149 -61 96 -48 259
-166 365 -263 251 -232 303 -269 387 -278 99 -12 67 63 -67 151 -45 30 -159
119 -253 198 -203 169 -280 216 -429 258 -98 28 -269 52 -254 37z"/>
<path d="M4992 11711 c-13 -8 89 -73 268 -170 l75 -41 -115 7 c-144 9 -141 9
-280 -6 -137 -14 -371 -60 -490 -95 -191 -56 -469 -181 -815 -365 -347 -186
-584 -288 -712 -306 -60 -9 -88 -34 -109 -98 l-17 -51 78 -153 c219 -429 520
-800 942 -1161 354 -304 590 -446 848 -514 89 -23 332 -38 305 -19 -8 6 -28
11 -45 11 -92 1 -342 73 -460 133 -153 77 -206 121 -449 377 -131 138 -258
274 -282 303 -23 29 -100 122 -171 207 -188 228 -334 436 -468 669 -71 125
-75 134 -58 147 10 8 29 17 43 20 32 8 502 248 690 353 436 243 800 380 1086
411 54 6 137 16 183 22 64 9 126 9 255 0 188 -13 272 -31 467 -103 126 -46
170 -72 404 -234 201 -140 348 -235 363 -235 23 0 12 42 -20 78 -129 145 -206
203 -468 354 -311 180 -606 321 -899 429 -108 40 -127 44 -149 30z"/>
<path d="M7656 11308 c-12 -45 -5 -95 29 -228 31 -124 47 -159 180 -425 80
-159 146 -296 145 -303 0 -10 -8 -12 -30 -7 -41 9 -140 -18 -224 -63 -55 -29
-108 -73 -237 -197 -91 -88 -252 -240 -358 -339 -106 -98 -204 -196 -218 -217
-40 -61 -49 -57 -57 24 -17 173 -26 237 -40 307 -24 113 -22 381 4 531 21 124
61 272 85 319 18 35 19 63 3 58 -32 -11 -146 -292 -161 -398 -3 -19 -11 -69
-17 -110 -13 -87 -13 -427 0 -485 5 -22 10 -64 10 -94 0 -61 23 -157 51 -215
24 -50 29 -40 -128 -221 l-26 -30 -32 70 c-17 39 -48 104 -68 145 -52 110 -68
203 -69 404 -1 391 121 831 323 1164 23 37 43 70 45 74 3 4 0 9 -5 12 -16 10
-214 -297 -269 -417 -55 -117 -130 -329 -147 -412 -9 -44 -20 -96 -25 -115
-33 -131 -45 -376 -28 -560 15 -169 73 -345 148 -455 l31 -44 -40 -58 c-51
-76 -181 -327 -181 -351 0 -10 -9 -56 -21 -102 -32 -124 -25 -261 18 -351 17
-37 48 -85 68 -108 l38 -42 -46 -97 c-147 -309 -151 -525 -14 -661 28 -29 71
-63 93 -77 57 -33 162 -55 224 -45 45 7 49 6 59 -16 6 -13 11 -35 11 -48 0
-28 7 -30 33 -11 12 9 17 27 17 57 0 24 7 65 17 91 14 41 15 52 3 88 -11 33
-11 48 -2 74 7 18 12 41 12 52 0 11 16 90 36 175 19 85 42 189 50 232 7 43 20
104 29 136 20 80 31 231 17 231 -20 0 -67 -110 -125 -290 -30 -96 -61 -195
-67 -219 -24 -90 -50 -268 -50 -340 l0 -73 -32 6 c-52 10 -150 60 -193 97 -57
50 -101 125 -109 186 -13 100 10 159 297 753 30 63 108 225 172 360 64 135
134 275 156 312 21 36 39 77 39 89 l0 23 -17 -24 c-9 -14 -33 -45 -54 -70 -66
-81 -175 -270 -359 -625 -118 -229 -132 -255 -139 -255 -12 0 -42 156 -43 221
-4 206 86 433 272 684 113 153 240 291 645 704 264 269 364 356 455 400 73 35
78 36 195 36 103 0 138 -5 242 -32 138 -36 185 -57 227 -102 27 -28 56 -41 56
-25 0 4 -10 22 -22 42 -29 47 -116 101 -264 163 -95 40 -123 56 -119 68 9 23
-15 121 -43 176 -13 28 -72 124 -130 215 -123 194 -223 381 -256 477 -43 123
-58 145 -70 101z"/>
<path d="M8180 11240 c0 -6 60 -109 133 -228 132 -213 164 -271 246 -444 48
-100 117 -183 144 -173 9 4 17 15 17 24 0 25 -43 148 -70 201 -43 86 -259 415
-317 485 -99 119 -153 166 -153 135z"/>
<path d="M5831 10839 c-216 -42 -457 -180 -664 -378 -137 -131 -229 -269 -293
-436 -32 -84 -56 -232 -42 -258 5 -10 6 -26 3 -36 -8 -27 53 -148 90 -178 30
-24 31 -26 24 -85 -4 -32 -9 -61 -12 -64 -9 -9 -114 33 -184 74 -119 70 -244
174 -379 317 -71 75 -138 150 -148 167 l-19 30 34 -7 c19 -4 46 -14 61 -21 16
-9 59 -14 108 -14 85 0 138 18 188 63 22 21 31 44 11 32 -23 -15 -127 -22
-183 -13 -32 5 -75 17 -95 28 -48 25 -154 110 -147 118 3 3 31 4 61 3 54 -2
206 29 248 50 28 15 67 50 67 61 0 4 -46 8 -102 8 -57 0 -132 5 -168 11 -36 5
-90 14 -120 18 -118 17 -251 86 -299 156 -42 62 -128 145 -150 145 -19 0 -21
-6 -21 -48 0 -106 80 -270 267 -543 56 -81 276 -339 384 -449 65 -67 198 -173
292 -234 63 -42 201 -86 266 -86 l48 0 7 -82 c11 -133 27 -219 51 -286 21 -57
63 -132 75 -132 3 0 16 17 29 37 21 33 22 40 12 91 -6 31 -11 70 -11 88 0 18
-9 78 -20 134 -24 121 -26 199 -5 226 21 27 19 34 -11 34 l-26 0 5 103 c14
286 75 476 229 710 39 59 68 110 64 114 -10 10 -111 -93 -181 -186 -74 -98
-144 -233 -177 -343 -13 -43 -27 -78 -32 -78 -5 0 -7 67 -3 159 l5 159 58 113
c50 98 72 128 154 213 52 54 128 125 167 157 149 119 366 220 620 289 88 24
120 37 116 47 -6 15 -177 17 -252 2z"/>
<path d="M7220 10813 c-1 -10 -5 -76 -9 -148 -5 -76 -5 -155 1 -190 5 -33 13
-90 17 -127 18 -145 112 -350 141 -308 17 26 11 65 -30 194 -49 155 -80 303
-81 393 -2 113 -13 196 -26 201 -7 2 -13 -5 -13 -15z"/>
<path d="M10205 10781 c-138 -25 -180 -38 -249 -74 -32 -18 -67 -36 -77 -42
-23 -12 -25 -25 -4 -25 8 0 15 4 15 8 0 16 98 43 215 61 203 31 522 5 796 -64
170 -43 516 -163 617 -213 263 -131 384 -244 496 -464 29 -56 58 -104 64 -106
14 -4 16 37 3 70 -5 13 -16 54 -25 93 -56 241 -252 444 -557 577 -112 48 -527
156 -639 165 -41 3 -81 10 -87 15 -7 6 -115 12 -240 14 -191 3 -244 1 -328
-15z"/>
<path d="M9815 10622 c-5 -4 -16 -15 -24 -24 -12 -16 -11 -17 18 -2 17 9 31
20 31 25 0 11 -11 12 -25 1z"/>
<path d="M6253 10313 c-80 -153 -121 -255 -178 -438 -102 -330 -148 -621 -151
-970 0 -110 -5 -256 -9 -324 l-8 -125 -34 40 c-43 49 -96 154 -112 218 -37
152 -35 199 25 432 54 209 56 245 7 192 -52 -57 -124 -250 -143 -386 -7 -46
-10 -138 -8 -210 4 -110 8 -136 33 -197 15 -38 47 -98 71 -131 44 -62 137
-154 157 -154 7 0 7 -33 1 -102 -15 -184 -3 -428 22 -449 10 -8 14 -5 19 13 3
12 12 52 20 88 9 37 19 138 22 233 5 149 8 167 22 161 32 -13 211 -11 222 2
29 35 -31 91 -159 150 l-84 37 6 346 c7 481 19 651 62 846 74 343 117 481 225
717 73 163 55 170 -28 11z"/>
<path d="M10712 10320 c-29 -4 -56 -10 -59 -13 -15 -16 17 -25 114 -31 365
-22 562 -67 800 -183 186 -92 314 -203 372 -327 58 -122 73 -201 80 -433 4
-137 10 -216 17 -223 7 -7 22 -10 35 -8 19 2 28 14 41 53 15 42 17 77 14 220
-2 94 -8 202 -14 240 -35 225 -137 380 -337 511 -146 95 -294 144 -555 185
-83 14 -438 20 -508 9z"/>
<path d="M9905 10101 c-65 -8 -84 -16 -159 -68 -103 -71 -161 -220 -136 -354
5 -30 26 -87 46 -127 19 -39 32 -77 29 -82 -3 -6 -27 -10 -53 -10 -26 0 -97
-11 -158 -25 -173 -39 -309 -101 -378 -174 -27 -28 -28 -34 -22 -87 9 -75 88
-315 108 -328 26 -16 51 11 43 48 -31 154 -38 257 -18 277 10 10 97 44 193 75
58 18 311 69 415 83 206 28 628 35 850 13 306 -29 566 -87 845 -189 439 -160
726 -429 780 -729 5 -33 14 -79 20 -104 5 -25 9 -120 10 -211 0 -194 -14 -277
-67 -387 -29 -60 -33 -75 -23 -87 12 -14 16 -13 40 10 65 62 120 218 120 340
0 38 4 86 9 106 4 20 5 60 0 90 -4 30 -13 104 -18 164 -13 132 -40 234 -88
335 -29 60 -58 97 -147 188 -124 127 -187 172 -361 261 -209 106 -549 215
-825 265 -52 9 -115 22 -140 27 -75 18 -331 49 -400 49 -36 0 -75 3 -87 6 -21
6 -21 7 17 69 52 84 60 120 51 213 -14 140 -100 261 -226 319 -66 30 -155 38
-270 24z m-48 -191 c35 -13 63 -56 63 -98 0 -21 -9 -38 -31 -56 -52 -44 -113
-29 -139 34 -11 26 -10 36 5 70 11 24 28 43 44 49 14 5 26 10 27 10 1 1 14 -4
31 -9z"/>
<path d="M5614 9885 c-100 -145 -194 -339 -279 -580 -85 -241 -105 -385 -105
-773 l0 -242 25 0 c18 0 29 9 44 38 42 82 52 150 61 397 15 389 27 451 154
755 98 234 128 326 124 387 l-3 48 -21 -30z"/>
<path d="M7893 9389 c-80 -12 -198 -75 -253 -135 -173 -187 -128 -512 84 -610
95 -44 158 -50 286 -28 l35 5 -46 -43 c-25 -24 -125 -117 -223 -208 -169 -157
-363 -371 -484 -533 -126 -169 -227 -377 -277 -569 -39 -149 -45 -237 -31
-448 15 -216 54 -376 111 -459 53 -77 101 -77 141 1 17 32 8 125 -21 218 -83
268 -88 298 -82 485 4 133 9 176 31 255 31 108 104 263 177 376 109 167 173
236 738 797 184 183 346 345 360 362 101 116 159 168 227 201 107 53 134 51
294 -26 72 -34 134 -60 137 -56 12 12 -30 77 -75 117 -65 57 -118 79 -190 79
-133 0 -206 -29 -347 -139 l-90 -71 -5 73 c-15 195 -171 352 -361 362 -41 2
-102 -1 -136 -6z m-18 -233 c12 -9 19 -29 22 -67 4 -53 3 -55 -31 -76 -43 -27
-46 -28 -90 -6 -45 21 -64 69 -45 114 7 17 22 35 33 39 33 13 90 11 111 -4z"/>
<path d="M9540 8842 c-112 -15 -357 -102 -490 -174 -145 -79 -266 -191 -317
-296 -23 -47 -25 -61 -20 -124 6 -69 8 -73 54 -120 26 -27 61 -56 77 -65 65
-34 276 -25 418 18 77 23 91 23 134 3 34 -16 34 -16 28 -73 -9 -85 -50 -233
-83 -298 -59 -117 -183 -253 -430 -468 -101 -88 -198 -198 -256 -289 -50 -79
-121 -230 -133 -286 -6 -25 -17 -72 -25 -105 -29 -115 -33 -161 -29 -322 3
-132 6 -163 17 -163 8 0 21 10 29 23 15 22 49 179 60 272 26 236 55 332 136
449 56 81 234 260 270 271 16 5 29 0 50 -20 39 -37 113 -56 175 -44 27 5 82
29 124 53 233 137 325 144 423 33 26 -30 61 -60 78 -67 28 -12 33 -11 55 10
23 22 25 31 25 117 0 157 22 184 227 276 145 65 237 132 283 205 16 26 31 51
33 56 4 13 153 -65 222 -116 33 -25 125 -105 204 -179 217 -203 309 -268 433
-303 l56 -17 26 -95 c50 -179 142 -385 265 -589 130 -216 177 -323 220 -491
36 -141 80 -339 91 -409 28 -172 39 -269 39 -336 0 -42 3 -87 6 -101 9 -34
-12 -335 -31 -443 -19 -113 -55 -222 -99 -300 -38 -67 -161 -241 -231 -325
-25 -30 -53 -70 -62 -87 -8 -18 -18 -33 -21 -33 -18 0 19 977 44 1180 3 25 -1
71 -9 102 -7 32 -11 68 -9 81 6 29 -30 172 -61 240 -26 58 -48 82 -71 73 -12
-4 -13 -11 -5 -32 6 -15 18 -93 26 -173 18 -169 15 -378 -11 -626 -47 -468
-54 -553 -55 -735 0 -140 -17 -292 -36 -321 -4 -8 -7 -23 -6 -35 3 -24 -39
-147 -76 -219 -13 -27 -77 -126 -141 -220 -135 -198 -179 -268 -291 -465 -129
-226 -131 -229 -141 -236 -22 -13 -18 8 20 102 45 112 90 272 117 419 22 116
25 462 6 600 -6 44 -16 118 -22 165 -11 89 -20 144 -40 245 -6 33 -15 89 -20
125 -5 36 -18 107 -29 159 -11 51 -18 97 -16 102 8 11 -22 79 -34 79 -28 0
-38 -168 -21 -350 6 -58 14 -166 20 -240 5 -74 12 -153 15 -175 3 -22 8 -176
11 -343 5 -258 3 -319 -11 -404 -32 -189 -98 -374 -222 -622 -93 -186 -216
-460 -217 -486 -1 -18 5 -26 19 -28 34 -5 113 110 284 418 26 47 58 90 70 96
33 17 65 49 161 161 132 152 343 438 470 637 62 97 114 176 116 176 1 0 3 -17
3 -38 0 -181 30 -505 52 -578 5 -17 9 -40 9 -51 0 -22 73 -210 110 -284 31
-61 69 -113 257 -349 211 -266 285 -385 333 -535 30 -95 31 -243 2 -335 -12
-35 -19 -67 -16 -70 12 -11 83 80 103 134 29 79 53 230 41 262 -6 14 -10 41
-10 59 0 45 -64 222 -90 250 -11 12 -20 25 -20 31 0 5 -18 36 -40 68 -22 33
-37 63 -33 67 13 13 223 115 328 159 363 154 514 284 588 507 32 99 53 263 37
293 -8 16 -7 25 5 42 37 53 21 68 -147 134 -168 65 -228 109 -305 220 -78 112
-131 218 -233 462 -103 248 -126 292 -200 390 -49 66 -89 105 -149 149 -2 1 8
29 22 60 33 75 73 206 81 263 3 25 11 81 18 125 23 154 14 478 -21 715 -78
530 -180 784 -417 1040 -148 159 -195 244 -254 455 -12 44 -24 84 -27 91 -3 7
20 13 69 17 40 3 110 18 156 33 l82 27 51 -32 c28 -17 62 -34 77 -37 15 -3 55
-15 90 -26 49 -16 76 -19 124 -14 61 6 136 35 157 60 18 21 -50 58 -184 100
-219 68 -263 97 -561 360 -191 169 -286 242 -372 286 -107 54 -110 58 128
-221 58 -68 154 -176 213 -239 60 -63 104 -116 98 -118 -19 -6 -236 77 -298
115 -95 57 -196 137 -315 250 -142 134 -210 184 -323 240 -97 47 -138 60 -285
91 -145 31 -253 42 -396 42 -126 0 -307 20 -359 40 -23 9 -25 15 -25 68 0 55
2 60 43 98 23 22 67 58 97 81 85 62 205 183 229 230 12 24 24 62 27 85 4 38 0
51 -35 105 -47 73 -97 109 -171 123 -50 10 -147 10 -210 2z m116 -111 c35 -21
64 -74 57 -102 -8 -30 -61 -69 -93 -69 -40 0 -90 44 -90 80 0 45 17 77 47 94
36 20 42 20 79 -3z m-56 -776 c18 -22 164 -66 245 -75 112 -12 189 -28 358
-72 175 -47 181 -52 133 -117 -36 -48 -86 -79 -196 -120 -53 -21 -119 -50
-146 -66 -94 -55 -184 -158 -184 -211 0 -13 -7 -15 -42 -10 -69 11 -98 9 -187
-13 -90 -23 -138 -44 -266 -116 -87 -49 -145 -58 -208 -32 -67 28 -64 37 29
117 140 120 249 252 314 380 38 75 88 219 94 272 9 77 27 98 56 63z m2579
-3960 c33 -77 76 -187 96 -244 121 -340 227 -526 377 -666 94 -87 172 -125
273 -132 l77 -6 -6 -62 c-9 -90 -49 -217 -87 -281 -92 -153 -215 -236 -534
-358 -66 -25 -169 -73 -230 -107 -81 -45 -114 -58 -125 -51 -25 16 -276 342
-325 423 -93 154 -148 312 -174 502 -6 42 -16 112 -22 155 -5 42 -14 99 -20
125 -5 27 -9 68 -9 91 0 23 -5 47 -10 52 -7 7 -5 23 6 50 10 21 34 98 54 170
l37 131 73 69 c205 194 287 287 360 408 l23 38 54 -83 c29 -46 80 -147 112
-224z m-1469 -1513 c0 -5 -7 -17 -15 -28 -15 -19 -20 -8 -9 20 6 17 24 22 24
8z"/>
<path d="M12177 3039 c-13 -18 -13 -30 3 -104 30 -134 133 -316 237 -416 55
-53 178 -139 199 -139 23 0 27 26 10 59 -9 16 -60 80 -114 141 -180 205 -230
279 -262 385 -30 100 -44 116 -73 74z"/>
<path d="M11759 3004 c-8 -24 -4 -36 39 -103 27 -42 81 -128 120 -191 61 -100
106 -160 182 -245 95 -107 256 -174 315 -131 30 22 12 41 -87 89 -139 68 -234
168 -434 453 -59 85 -111 154 -116 154 -5 0 -13 -12 -19 -26z"/>
<path d="M10900 8412 c0 -15 19 -29 83 -58 202 -93 560 -279 647 -335 196
-127 346 -265 414 -382 34 -58 65 -152 106 -319 18 -76 36 -138 39 -138 19 0
73 44 82 68 14 35 5 190 -16 257 -8 28 -35 88 -60 135 -25 47 -69 132 -99 190
-30 58 -88 153 -129 212 -78 111 -206 268 -219 268 -4 0 -10 -10 -13 -23 -5
-16 12 -57 55 -140 34 -64 59 -117 57 -117 -3 0 -50 26 -104 57 -54 31 -143
78 -198 104 -124 59 -568 230 -612 236 -28 4 -33 2 -33 -15z"/>
<path d="M8088 7311 c-33 -26 -82 -131 -109 -232 -39 -148 -39 -560 -1 -739 6
-25 15 -72 22 -105 30 -146 56 -227 109 -333 48 -98 66 -124 128 -182 80 -77
110 -87 229 -77 71 5 123 31 192 97 34 33 42 48 42 76 0 31 -2 34 -19 24 -26
-14 -84 -13 -76 1 9 14 -19 44 -70 74 -87 50 -160 155 -200 286 -22 72 -30
277 -17 454 10 141 42 293 82 396 48 122 -5 106 -64 -20 -131 -279 -170 -763
-82 -1010 13 -36 31 -83 40 -105 25 -55 0 -42 -45 25 -87 128 -192 501 -205
729 -2 30 -6 93 -9 140 -6 85 5 240 24 335 8 43 27 98 56 168 9 22 3 22 -27
-2z"/>
<path d="M7464 7086 c-21 -15 -27 -44 -40 -174 -2 -18 -6 -37 -9 -42 -24 -39
-69 -378 -67 -506 2 -145 22 -229 80 -333 60 -107 111 -163 206 -226 53 -35
74 -55 70 -65 -3 -8 -8 -31 -10 -50 -7 -56 -32 -170 -89 -405 -65 -266 -74
-311 -85 -417 l-8 -83 -53 -45 c-183 -153 -314 -372 -415 -689 -20 -64 -43
-136 -51 -161 -7 -25 -21 -72 -29 -105 -16 -66 -55 -195 -116 -385 -88 -274
-182 -381 -539 -616 -130 -85 -180 -136 -214 -218 -30 -71 -11 -165 44 -226
34 -38 38 -39 72 -31 22 5 43 4 54 -1 23 -13 231 -38 321 -38 86 0 140 -17
302 -99 141 -71 138 -51 29 -179 -333 -393 -395 -486 -437 -654 l-21 -85 29
-79 c26 -70 33 -79 60 -86 23 -6 44 -27 81 -81 138 -199 419 -309 856 -334
186 -11 553 -9 680 4 128 14 320 59 382 92 21 10 60 35 87 54 47 34 50 35 65
17 9 -10 35 -22 59 -28 77 -18 172 17 235 87 38 42 105 166 127 236 17 53 20
57 98 103 37 23 106 79 153 125 68 67 95 103 132 175 26 50 54 122 63 160 14
64 14 77 -1 157 -20 108 -47 169 -159 355 -61 102 -95 173 -117 239 -16 51
-28 96 -25 98 6 7 22 -6 211 -172 317 -277 425 -402 466 -537 19 -60 20 -75 9
-113 -7 -23 -9 -52 -6 -62 3 -11 -5 -52 -19 -92 l-24 -72 27 -39 c15 -22 30
-39 34 -40 18 -1 66 54 73 82 4 18 9 27 12 21 2 -7 -1 -37 -7 -65 -6 -29 -14
-121 -17 -203 -6 -159 3 -220 47 -305 26 -50 97 -118 155 -148 68 -34 216 -43
294 -17 l52 17 62 -28 c61 -28 66 -29 271 -32 141 -3 212 0 219 7 6 6 27 11
47 11 55 0 301 56 524 119 169 49 266 93 311 143 39 43 42 55 18 73 -20 15
-111 -2 -217 -41 -72 -27 -184 -64 -266 -89 -39 -12 -131 -30 -335 -65 -193
-34 -373 -38 -467 -10 -65 19 -131 72 -163 131 -27 50 -30 63 -33 179 -3 81 2
170 12 253 14 105 15 134 4 162 -21 61 -39 41 -63 -70 -55 -259 -58 -281 -58
-415 0 -98 4 -146 16 -177 8 -22 13 -43 10 -46 -10 -11 -190 45 -227 71 -72
49 -121 214 -98 325 6 29 16 86 22 127 6 41 14 86 16 100 11 54 25 137 28 171
2 20 7 56 11 80 5 24 9 53 10 65 2 11 19 46 40 78 81 128 106 272 81 478 -9
73 -27 174 -40 223 -13 50 -29 117 -35 150 -7 33 -23 98 -36 145 -35 123 -48
262 -41 425 7 180 8 171 -3 365 -9 175 -24 268 -73 445 -27 98 -49 147 -62
134 -2 -2 6 -44 19 -93 50 -185 58 -264 51 -533 -3 -136 -9 -313 -12 -393 -4
-87 -2 -185 5 -245 6 -55 16 -143 22 -195 11 -104 23 -173 44 -265 31 -132 35
-172 35 -325 0 -173 -8 -213 -59 -280 -15 -19 -34 -47 -44 -62 -22 -35 -37
-36 -37 -2 0 47 -50 176 -96 247 -60 92 -249 279 -399 395 -229 177 -360 291
-428 372 -88 106 -170 323 -251 670 -15 63 -33 138 -41 165 -20 75 -55 275
-55 312 0 17 -4 43 -10 57 -10 27 -18 98 -27 254 -4 76 -9 102 -19 102 -11 0
-14 -36 -16 -177 -2 -98 -1 -203 0 -233 6 -118 21 -298 31 -365 6 -38 12 -88
15 -110 7 -55 43 -225 65 -310 11 -38 21 -80 24 -92 4 -17 -15 -4 -76 50 -226
201 -391 378 -505 540 -61 87 -147 267 -176 367 -28 100 -56 277 -56 358 0 52
30 246 46 300 4 13 2 22 -4 22 -16 0 -50 -101 -69 -203 -12 -65 -17 -147 -18
-279 0 -170 -1 -185 -16 -177 -9 5 -73 64 -142 131 -140 139 -168 185 -207
343 -27 109 -24 173 19 380 17 77 48 228 71 335 23 107 44 232 47 278 3 45 9
84 12 86 8 5 105 -12 149 -26 45 -13 160 9 173 33 12 24 -68 76 -268 174 -180
90 -249 148 -306 260 -68 136 -70 148 -75 489 -3 221 -1 320 8 345 6 20 10 53
8 74 -3 36 -4 37 -24 23z m45 -2459 c1 -15 8 -63 17 -105 22 -108 83 -219 167
-305 l69 -70 -5 -221 c-3 -121 -10 -243 -15 -271 -6 -27 -17 -93 -25 -145 -32
-191 -93 -371 -206 -605 -81 -167 -263 -472 -350 -590 -21 -27 -53 -71 -71
-97 -18 -27 -36 -48 -39 -48 -3 0 -19 21 -36 46 -40 60 -114 109 -211 141 -75
24 -88 26 -286 24 -115 -1 -208 0 -208 3 0 3 84 66 188 142 290 212 372 285
471 416 38 51 75 127 66 136 -9 10 -60 -31 -155 -123 -63 -61 -179 -154 -290
-235 -198 -142 -312 -230 -347 -268 -21 -23 -22 -23 -32 -3 -6 11 -11 42 -11
69 0 63 25 90 164 171 266 155 407 298 516 521 45 95 126 339 194 592 114 419
201 612 375 830 49 61 59 60 60 -5z m346 -557 c4 0 46 -31 94 -68 47 -38 100
-78 118 -90 22 -15 39 -41 53 -80 46 -124 215 -375 366 -543 38 -43 188 -201
334 -353 249 -260 269 -278 324 -298 l58 -21 -6 -85 c-4 -46 -3 -89 2 -96 5
-6 12 -36 16 -66 8 -63 70 -219 151 -379 91 -182 103 -267 54 -381 -17 -40
-46 -74 -132 -152 -107 -99 -111 -101 -120 -77 -5 13 -6 71 -3 129 5 80 2 137
-13 240 -29 192 -48 291 -60 320 -6 14 -17 96 -25 183 -7 87 -16 160 -20 164
-3 3 -14 -2 -25 -11 -18 -16 -19 -31 -16 -214 3 -189 15 -368 35 -498 6 -34
10 -142 10 -241 0 -149 -4 -193 -21 -264 -35 -140 -67 -183 -168 -234 -64 -32
-134 -58 -129 -47 60 119 78 165 84 214 10 86 -13 77 -72 -29 -59 -106 -115
-163 -197 -202 -57 -27 -77 -31 -242 -42 -177 -12 -435 -6 -820 20 -133 9
-158 16 -151 40 3 9 15 46 26 83 49 160 157 388 322 676 118 209 164 298 205
407 44 112 63 179 63 214 0 58 -18 40 -51 -52 -41 -112 -179 -384 -264 -521
-180 -292 -322 -565 -350 -676 -38 -150 -34 -140 -63 -140 -41 0 -158 27 -247
56 -44 15 -81 28 -83 29 -1 1 37 60 85 131 49 71 104 154 123 184 19 30 127
177 239 325 346 457 435 619 509 927 21 86 34 198 22 198 -3 0 -26 -66 -50
-147 -71 -239 -205 -493 -393 -740 -42 -56 -89 -122 -105 -146 -15 -25 -71
-98 -125 -163 -123 -151 -218 -280 -304 -416 -37 -59 -73 -107 -79 -108 -16 0
-134 77 -171 113 -33 31 -33 32 -33 127 0 55 6 117 14 144 23 75 89 176 174
267 104 110 209 236 274 328 29 41 87 120 127 175 136 184 395 611 422 694 6
20 30 80 54 132 65 144 111 290 144 465 26 135 31 181 31 309 -1 83 -5 171
-11 196 -5 25 -12 63 -15 85 -5 36 -4 38 9 23 8 -10 18 -18 22 -18z"/>
<path d="M11130 2525 c-10 -12 -11 -62 -7 -213 5 -177 9 -208 36 -309 79 -296
209 -532 390 -714 89 -89 182 -152 255 -174 88 -27 75 -4 -102 180 -233 241
-344 402 -432 623 -69 172 -101 314 -107 475 -3 76 -9 140 -13 142 -4 3 -13
-2 -20 -10z"/>
</g>
</svg>
